<svg width="680" height="461" viewBox="0 0 680 461" fill="none" xmlns="http://www.w3.org/2000/svg">
<path d="M53.1 406.4H60.9V403.9H53.1V399.7H61.9V397.2H50V413.5H62.3V410.9H53.1V406.4Z" fill="#E06329"/>
<path d="M83.5002 397.2H80.2002L76.1002 402.9L72.0002 397.2H68.5002L74.3002 405.1L68.2002 413.5H71.7002L76.0002 407.2L80.5002 413.5H84.0002L77.8002 405L83.5002 397.2Z" fill="#E06329"/>
<path d="M101 397.9C99.9996 397.4 98.6996 397.2 97.2996 397.2H90.5996V413.5H93.5996V408.8H97.2996C98.6996 408.8 99.9996 408.6 101 408.1C102 407.6 102.8 407 103.4 406.1C104 405.2 104.2 404.2 104.2 403C104.2 401.8 103.9 400.8 103.4 399.9C102.8 399 102 398.3 101 397.9ZM100.1 405.3C99.3996 405.9 98.3996 406.1 97.0996 406.1H93.5996V399.6H97.0996C98.3996 399.6 99.3996 399.9 100.1 400.4C100.8 401 101.1 401.8 101.1 402.8C101.1 404 100.8 404.8 100.1 405.3Z" fill="#E06329"/>
<path d="M115 397.2H112V413.5H123.5V410.9H115V397.2Z" fill="#E06329"/>
<path d="M144.3 399.3C143.5 398.5 142.6 398 141.5 397.5C140.4 397.1 139.3 396.9 138 396.9C136.7 396.9 135.6 397.1 134.5 397.5C133.4 397.9 132.5 398.5 131.7 399.3C130.9 400.1 130.3 400.9 129.9 402C129.5 403 129.2 404.1 129.2 405.3C129.2 406.5 129.4 407.6 129.9 408.6C130.3 409.6 130.9 410.5 131.7 411.3C132.5 412.1 133.4 412.6 134.5 413.1C135.6 413.5 136.7 413.7 138 413.7C139.3 413.7 140.4 413.5 141.5 413.1C142.6 412.7 143.5 412.1 144.3 411.4C145.1 410.7 145.7 409.8 146.1 408.7C146.5 407.7 146.8 406.6 146.8 405.3C146.8 404.1 146.6 403 146.1 402C145.7 400.9 145 400.1 144.3 399.3ZM143.3 407.6C143 408.3 142.6 408.9 142.1 409.4C141.6 409.9 141 410.3 140.3 410.6C139.6 410.9 138.8 411 138 411C137.2 411 136.4 410.9 135.7 410.6C135 410.3 134.4 409.9 133.9 409.4C133.4 408.9 133 408.3 132.7 407.6C132.4 406.9 132.3 406.1 132.3 405.3C132.3 404.5 132.4 403.7 132.7 403C133 402.3 133.4 401.7 133.9 401.2C134.4 400.7 135 400.3 135.7 400C136.4 399.7 137.1 399.6 138 399.6C138.8 399.6 139.6 399.7 140.3 400C141 400.3 141.6 400.7 142.1 401.2C142.6 401.7 143 402.3 143.3 403C143.6 403.7 143.7 404.5 143.7 405.3C143.7 406.1 143.6 406.9 143.3 407.6Z" fill="#E06329"/>
<path d="M165.1 408C166.1 407.5 166.9 406.9 167.5 406C168.1 405.1 168.3 404.1 168.3 402.9C168.3 401.7 168 400.7 167.5 399.8C166.9 398.9 166.1 398.3 165.1 397.8C164.1 397.3 162.8 397.1 161.4 397.1H154.7V413.4H157.7V408.6H161.4C161.6 408.6 161.8 408.6 162 408.6L165.3 413.4H168.6L164.9 408.1C165 408.1 165.1 408 165.1 408ZM164.3 400.6C165 401.2 165.3 402 165.3 403C165.3 404 165 404.8 164.3 405.4C163.6 406 162.6 406.3 161.3 406.3H157.8V399.8H161.3C162.6 399.7 163.6 400 164.3 400.6Z" fill="#E06329"/>
<path d="M179.5 406.4H187.4V403.9H179.5V399.7H188.4V397.2H176.5V413.5H188.7V410.9H179.5V406.4Z" fill="#E06329"/>
<path d="M220.1 405.2C219.9 405.1 219.7 405 219.5 405C220.1 404.7 220.6 404.2 221 403.6C221.4 403 221.6 402.2 221.6 401.4C221.6 400.1 221.1 399.1 220.1 398.3C219.1 397.5 217.6 397.1 215.6 397.1H208V413.4H216.1C218.2 413.4 219.8 413 220.9 412.2C222 411.4 222.5 410.3 222.5 408.9C222.5 408 222.3 407.2 221.9 406.5C221.5 405.8 220.8 405.5 220.1 405.2ZM215.3 399.5C216.4 399.5 217.2 399.7 217.7 400.1C218.3 400.5 218.5 401 218.5 401.8C218.5 402.5 218.2 403.1 217.7 403.5C217.2 403.9 216.3 404.1 215.3 404.1H211V399.6H215.3V399.5ZM218.5 410.5C217.9 410.9 217 411.1 215.9 411.1H211V406.4H215.9C217 406.4 217.9 406.6 218.5 407C219.1 407.4 219.4 408 219.4 408.8C219.4 409.5 219.1 410.1 218.5 410.5Z" fill="#E06329"/>
<path d="M233.5 406.4H241.4V403.9H233.5V399.7H242.4V397.2H230.5V413.5H242.7V410.9H233.5V406.4Z" fill="#E06329"/>
<path d="M261.1 397.2L256.2 405.1L251.5 397.2H248.2L254.6 407.7V413.5H257.7V407.7L264 397.2H261.1Z" fill="#E06329"/>
<path d="M284 399.3C283.2 398.5 282.3 398 281.2 397.5C280.1 397.1 279 396.9 277.7 396.9C276.4 396.9 275.3 397.1 274.2 397.5C273.1 397.9 272.2 398.5 271.4 399.3C270.6 400.1 270 400.9 269.6 402C269.2 403 268.9 404.1 268.9 405.3C268.9 406.5 269.1 407.6 269.6 408.6C270 409.6 270.6 410.5 271.4 411.3C272.2 412.1 273.1 412.6 274.2 413.1C275.3 413.5 276.4 413.7 277.7 413.7C279 413.7 280.1 413.5 281.2 413.1C282.3 412.7 283.2 412.1 284 411.4C284.8 410.7 285.4 409.8 285.8 408.7C286.2 407.7 286.5 406.6 286.5 405.3C286.5 404.1 286.3 403 285.8 402C285.4 400.9 284.8 400.1 284 399.3ZM283 407.6C282.7 408.3 282.3 408.9 281.8 409.4C281.3 409.9 280.7 410.3 280 410.6C279.3 410.9 278.5 411 277.7 411C276.9 411 276.1 410.9 275.4 410.6C274.7 410.3 274.1 409.9 273.6 409.4C273.1 408.9 272.7 408.3 272.4 407.6C272.1 406.9 272 406.1 272 405.3C272 404.5 272.1 403.7 272.4 403C272.7 402.3 273.1 401.7 273.6 401.2C274.1 400.7 274.7 400.3 275.4 400C276.1 399.7 276.8 399.6 277.7 399.6C278.5 399.6 279.3 399.7 280 400C280.7 400.3 281.3 400.7 281.8 401.2C282.3 401.7 282.7 402.3 283 403C283.3 403.7 283.4 404.5 283.4 405.3C283.4 406.1 283.3 406.9 283 407.6Z" fill="#E06329"/>
<path d="M305.9 408.2L296.9 397.2H294.4V413.5H297.4V402.4L306.4 413.5H308.9V397.2H305.9V408.2Z" fill="#E06329"/>
<path d="M329.8 398.2C328.5 397.5 326.9 397.2 325.1 397.2H318V413.5H325.1C326.9 413.5 328.4 413.2 329.8 412.5C331.1 411.8 332.2 410.9 332.9 409.6C333.6 408.4 334 407 334 405.3C334 403.7 333.6 402.2 332.9 401C332.2 399.8 331.2 398.9 329.8 398.2ZM330.3 408.2C329.8 409 329.1 409.7 328.2 410.2C327.3 410.7 326.2 410.9 325 410.9H321V399.7H325C326.2 399.7 327.3 399.9 328.2 400.4C329.1 400.9 329.8 401.5 330.3 402.3C330.8 403.1 331 404.1 331 405.2C331 406.4 330.8 407.4 330.3 408.2Z" fill="#E06329"/>
<path d="M351.1 399.7H356.5V413.5H359.5V399.7H364.9V397.2H351.1V399.7Z" fill="#E06329"/>
<path d="M383.4 403.9H375V397.2H372V413.5H375V406.5H383.4V413.5H386.4V397.2H383.4V403.9Z" fill="#E06329"/>
<path d="M398.6 406.4H406.5V403.9H398.6V399.7H407.5V397.2H395.6V413.5H407.8V410.9H398.6V406.4Z" fill="#E06329"/>
<path d="M439.2 405.2C439 405.1 438.8 405 438.6 405C439.2 404.7 439.7 404.2 440.1 403.6C440.5 403 440.7 402.2 440.7 401.4C440.7 400.1 440.2 399.1 439.2 398.3C438.2 397.5 436.7 397.1 434.7 397.1H427.1V413.4H435.2C437.3 413.4 438.9 413 440 412.2C441.1 411.4 441.6 410.3 441.6 408.9C441.6 408 441.4 407.2 441 406.5C440.5 406 439.9 405.5 439.2 405.2ZM434.4 399.5C435.5 399.5 436.3 399.7 436.8 400.1C437.4 400.5 437.6 401 437.6 401.8C437.6 402.5 437.3 403.1 436.8 403.5C436.3 403.9 435.4 404.1 434.4 404.1H430.1V399.6H434.4V399.5ZM437.6 410.5C437 410.9 436.1 411.1 435 411.1H430.1V406.4H435C436.1 406.4 437 406.6 437.6 407C438.2 407.4 438.5 408 438.5 408.8C438.5 409.5 438.2 410.1 437.6 410.5Z" fill="#E06329"/>
<path d="M463.5 399.3C462.7 398.5 461.8 398 460.7 397.5C459.6 397.1 458.5 396.9 457.2 396.9C455.9 396.9 454.8 397.1 453.7 397.5C452.6 397.9 451.7 398.5 450.9 399.3C450.1 400.1 449.5 400.9 449.1 402C448.7 403 448.4 404.1 448.4 405.3C448.4 406.5 448.6 407.6 449.1 408.6C449.5 409.6 450.1 410.5 450.9 411.3C451.7 412.1 452.6 412.6 453.7 413.1C454.8 413.5 455.9 413.7 457.2 413.7C458.5 413.7 459.6 413.5 460.7 413.1C461.8 412.7 462.7 412.1 463.5 411.4C464.3 410.7 464.9 409.8 465.3 408.7C465.7 407.7 466 406.6 466 405.3C466 404.1 465.8 403 465.3 402C464.9 400.9 464.3 400.1 463.5 399.3ZM462.5 407.6C462.2 408.3 461.8 408.9 461.3 409.4C460.8 409.9 460.2 410.3 459.5 410.6C458.8 410.9 458 411 457.2 411C456.4 411 455.6 410.9 454.9 410.6C454.2 410.3 453.6 409.9 453.1 409.4C452.6 408.9 452.2 408.3 451.9 407.6C451.6 406.9 451.5 406.1 451.5 405.3C451.5 404.5 451.6 403.7 451.9 403C452.2 402.3 452.6 401.7 453.1 401.2C453.6 400.7 454.2 400.3 454.9 400C455.6 399.7 456.3 399.6 457.2 399.6C458 399.6 458.8 399.7 459.5 400C460.2 400.3 460.8 400.7 461.3 401.2C461.8 401.7 462.2 402.3 462.5 403C462.8 403.7 462.9 404.5 462.9 405.3C462.9 406.1 462.8 406.9 462.5 407.6Z" fill="#E06329"/>
<path d="M485.1 406.2C485.1 407.9 484.7 409.1 484 409.9C483.3 410.7 482.3 411 481 411C479.7 411 478.7 410.6 477.9 409.9C477.2 409.1 476.8 407.9 476.8 406.2V397.1H473.8V406.3C473.8 408.7 474.4 410.5 475.7 411.7C477 413 478.7 413.6 481 413.6C483.2 413.6 485 413 486.2 411.7C487.5 410.4 488.1 408.6 488.1 406.3V397.1H485.1V406.2Z" fill="#E06329"/>
<path d="M508.5 408.2L499.5 397.2H497V413.5H500V402.4L509 413.5H511.5V397.2H508.5V408.2Z" fill="#E06329"/>
<path d="M532.4 398.2C531.1 397.5 529.5 397.2 527.7 397.2H520.6V413.5H527.7C529.5 413.5 531 413.2 532.4 412.5C533.7 411.8 534.8 410.9 535.5 409.6C536.2 408.4 536.6 407 536.6 405.3C536.6 403.7 536.2 402.2 535.5 401C534.8 399.8 533.8 398.9 532.4 398.2ZM532.9 408.2C532.4 409 531.7 409.7 530.8 410.2C529.9 410.7 528.8 410.9 527.6 410.9H523.6V399.7H527.6C528.8 399.7 529.9 399.9 530.8 400.4C531.7 400.9 532.4 401.5 532.9 402.3C533.4 403.1 533.6 404.1 533.6 405.2C533.6 406.4 533.4 407.4 532.9 408.2Z" fill="#E06329"/>
<path d="M549.4 397.2L542.1 413.5H545.2L546.8 409.7H555L556.6 413.5H559.8L552.4 397.2H549.4ZM547.8 407.3L550.9 400.2L554 407.3H547.8Z" fill="#E06329"/>
<path d="M577 408C578 407.5 578.8 406.9 579.4 406C580 405.1 580.2 404.1 580.2 402.9C580.2 401.7 579.9 400.7 579.4 399.8C578.8 398.9 578 398.3 577 397.8C576 397.3 574.7 397.1 573.3 397.1H566.6V413.4H569.6V408.6H573.3C573.5 408.6 573.7 408.6 573.9 408.6L577.2 413.4H580.5L576.8 408.1C576.8 408.1 576.9 408 577 408ZM576.2 400.6C576.9 401.2 577.2 402 577.2 403C577.2 404 576.9 404.8 576.2 405.4C575.5 406 574.5 406.3 573.2 406.3H569.7V399.8H573.2C574.5 399.7 575.5 400 576.2 400.6Z" fill="#E06329"/>
<path d="M591.4 397.2H588.4V413.5H591.4V397.2Z" fill="#E06329"/>
<path d="M603.6 406.4H611.4V403.9H603.6V399.7H612.4V397.2H600.5V413.5H612.8V410.9H603.6V406.4Z" fill="#E06329"/>
<path d="M632 406.7C631.7 406.1 631.2 405.7 630.6 405.4C630 405.1 629.4 404.8 628.7 404.6C628 404.4 627.3 404.2 626.6 404.1C625.9 403.9 625.3 403.8 624.7 403.6C624.1 403.4 623.7 403.2 623.3 402.9C623 402.6 622.8 402.2 622.8 401.7C622.8 401.3 622.9 400.9 623.2 400.6C623.4 400.3 623.8 400 624.3 399.8C624.8 399.6 625.5 399.5 626.3 399.5C627 399.5 627.8 399.6 628.5 399.8C629.3 400 630 400.3 630.8 400.8L631.8 398.4C631.1 397.9 630.2 397.6 629.3 397.3C628.3 397.1 627.4 396.9 626.4 396.9C624.9 396.9 623.7 397.1 622.7 397.6C621.7 398 621 398.6 620.5 399.4C620 400.1 619.8 400.9 619.8 401.8C619.8 402.7 620 403.4 620.3 403.9C620.7 404.5 621.1 404.9 621.7 405.2C622.3 405.5 622.9 405.8 623.6 406C624.3 406.2 625 406.4 625.7 406.5C626.4 406.7 627 406.8 627.6 407C628.2 407.2 628.6 407.4 629 407.7C629.4 408 629.5 408.4 629.5 408.9C629.5 409.3 629.4 409.7 629.1 410C628.9 410.3 628.5 410.6 627.9 410.8C627.4 411 626.7 411.1 625.8 411.1C624.8 411.1 623.8 410.9 622.8 410.6C621.8 410.3 621 409.8 620.4 409.3L619.4 411.7C620.1 412.3 621 412.7 622.2 413.1C623.4 413.5 624.6 413.6 625.9 413.6C627.4 413.6 628.6 413.4 629.6 412.9C630.6 412.5 631.3 411.9 631.8 411.1C632.3 410.4 632.5 409.6 632.5 408.7C632.5 408 632.3 407.3 632 406.7Z" fill="#E06329"/>
<path d="M49.7002 369.5L76.4002 300.8H89.2002L115.9 369.5V371.2H99.9002L95.4002 358.5H70.2002L65.7002 371.2H49.8002V369.5H49.7002ZM91.1002 345.4L82.7002 322.7L74.4002 345.4H91.1002Z" fill="#204E27"/>
<path d="M122.7 300.8H137.1V371.2H122.7V300.8Z" fill="#204E27"/>
<path d="M157.9 300.8L175.1 315.5V325.4H170.5C166 325.4 162.4 329 162.4 333.5V361.2V363.7C162.4 364.3 162.5 364.9 162.6 365.5V365.6C162.7 365.8 162.7 366.1 162.8 366.3C162.9 366.7 163.2 367.3 163.5 367.8C163.6 367.9 163.6 368 163.7 368.2C164.2 368.9 164.8 369.6 165.6 370.1C166.2 370.5 166.8 370.9 167.4 371.1H146V300.7H157.9V300.8ZM176.4 316.5V325.4H185.4V316.8L181.1 320.5L176.4 316.5ZM204 300.8L186.5 315.8V325.4H191C195.5 325.4 199.1 329.1 199.1 333.5V342.4V363.6C199.1 364.2 199 364.8 198.9 365.4V365.5C198.8 365.7 198.8 366 198.7 366.2C198.5 366.7 198.2 367.4 197.8 368.1C197.3 368.8 196.7 369.5 195.9 370C195.3 370.4 194.7 370.8 194.1 371H215.6V300.6H204V300.8Z" fill="#204E27"/>
<path d="M230.401 366.2C226.801 362.2 225.101 356.4 225.101 348.8V317.9H239.501V347.1C239.501 350.9 240.401 353.9 242.101 355.9C243.801 357.9 246.301 359 249.501 359C253.301 359 256.301 357.9 258.501 355.7C260.701 353.5 261.901 350.5 261.901 346.8V317.9H276.301V371.2H262.701L262.301 365C260.201 367.3 257.801 369.1 254.901 370.4C252.001 371.6 248.901 372.3 245.501 372.3C239.001 372.2 234.001 370.2 230.401 366.2Z" fill="#204E27"/>
<path d="M297.9 368.6C293.8 366.2 290.7 362.8 288.5 358.6C286.3 354.4 285.2 349.7 285.2 344.5C285.2 339.2 286.3 334.4 288.6 330.2C290.9 326 294.1 322.7 298.1 320.3C302.2 317.9 306.7 316.7 311.8 316.7C315.2 316.7 318.3 317.3 321.3 318.4C324.3 319.5 326.9 321.1 329.2 323.2L329.7 317.9H342.2V387.5H327.8V367C323.2 370.6 317.8 372.3 311.7 372.3C306.6 372.3 302 371.1 297.9 368.6ZM303.7 354.8C306.3 357.5 309.7 358.8 313.8 358.8C318 358.8 321.4 357.5 324 354.8C326.6 352.1 328 348.7 328 344.5C328 340.3 326.7 336.9 324 334.2C321.3 331.5 317.9 330.2 313.8 330.2C309.7 330.2 306.3 331.5 303.7 334.2C301 336.9 299.7 340.3 299.7 344.5C299.7 348.7 301 352.1 303.7 354.8Z" fill="#204E27"/>
<path d="M362.3 368.7C358.2 366.3 355 363 352.8 358.7C350.6 354.5 349.4 349.7 349.4 344.5C349.4 339.1 350.6 334.3 352.9 330.1C355.2 325.9 358.4 322.6 362.5 320.2C366.6 317.9 371.2 316.7 376.3 316.7C383 316.7 388.8 318.8 393.6 323.1L394.1 317.8H406.6V371.1H394.1L393.6 365.8C391.2 367.9 388.6 369.5 385.6 370.6C382.6 371.7 379.5 372.3 376.2 372.3C371.1 372.3 366.4 371.1 362.3 368.7ZM368 354.8C370.7 357.5 374.1 358.8 378.2 358.8C382.3 358.8 385.7 357.5 388.3 354.8C391 352.1 392.3 348.7 392.3 344.5C392.3 340.3 391 336.9 388.3 334.2C385.6 331.5 382.3 330.2 378.2 330.2C374 330.2 370.6 331.5 368 334.2C365.3 336.9 364 340.3 364 344.5C364 348.7 365.3 352.1 368 354.8Z" fill="#204E27"/>
<path d="M427.7 368.6C423.6 366.2 420.5 362.8 418.3 358.6C416.1 354.4 415 349.7 415 344.5C415 339.2 416.1 334.4 418.4 330.2C420.7 326 423.8 322.7 427.9 320.3C431.9 317.9 436.5 316.7 441.6 316.7C447.7 316.7 453.1 318.5 457.7 322V300.7H472.1V371.1H459.6L459.1 365.8C456.8 367.9 454.1 369.5 451.1 370.6C448.1 371.7 444.9 372.3 441.6 372.3C436.4 372.3 431.8 371.1 427.7 368.6ZM433.5 354.8C436.1 357.5 439.5 358.8 443.6 358.8C447.8 358.8 451.2 357.5 453.8 354.8C456.4 352.1 457.8 348.7 457.8 344.5C457.8 340.3 456.5 336.9 453.8 334.2C451.1 331.5 447.7 330.2 443.6 330.2C439.5 330.2 436.1 331.5 433.5 334.2C430.8 336.9 429.5 340.3 429.5 344.5C429.5 348.7 430.8 352.1 433.5 354.8Z" fill="#204E27"/>
<path d="M532.201 319.1L529.601 309.5C529.401 308.6 528.401 308.1 527.501 308.3C526.601 308.5 526.101 309.5 526.301 310.4L528.901 320C529.101 320.7 529.801 321.2 530.501 321.2C530.601 321.2 530.801 321.2 530.901 321.1C531.901 320.9 532.401 320 532.201 319.1Z" fill="#204E27"/>
<path d="M493.4 368.7C489.3 366.3 486.1 363 483.9 358.7C481.7 354.5 480.5 349.7 480.5 344.5C480.5 339.1 481.7 334.3 484 330.1C486.3 325.9 489.5 322.6 493.6 320.2C497.7 317.9 502.3 316.7 507.4 316.7C514.1 316.7 519.9 318.8 524.7 323.1L525.2 317.8H537.7V371.1H525.2L524.7 365.8C522.4 367.9 519.7 369.5 516.8 370.6C513.8 371.7 510.7 372.3 507.4 372.3C502.1 372.3 497.5 371.1 493.4 368.7ZM499.1 354.8C501.7 357.5 505.2 358.8 509.3 358.8C513.4 358.8 516.8 357.5 519.4 354.8C522 352.1 523.4 348.7 523.4 344.5C523.4 340.3 522.1 336.9 519.4 334.2C516.7 331.5 513.4 330.2 509.3 330.2C505.1 330.2 501.7 331.5 499.1 334.2C496.4 336.9 495.1 340.3 495.1 344.5C495.1 348.7 496.4 352.1 499.1 354.8Z" fill="#204E27"/>
<path d="M546 317.9H559.6L560 324.1C561.9 321.8 564.3 320 567.1 318.7C569.9 317.5 573 316.8 576.5 316.8C580.4 316.8 583.7 317.6 586.6 319.1C589.4 320.6 591.6 322.9 593.2 325.8C598.2 319.8 604.6 316.7 612.4 316.7C619 316.7 624.1 318.7 627.6 322.7C631.1 326.7 632.8 332.5 632.8 340.1V371H618.4V341.6C618.4 337.8 617.6 335 615.9 332.9C614.2 330.9 611.7 329.9 608.5 329.9C604.9 329.9 602 331 599.8 333.1C597.7 335.2 596.6 338 596.6 341.6V371H582.2V341.6C582.2 337.8 581.4 335 579.7 332.9C578 330.9 575.5 329.9 572.3 329.9C568.7 329.9 565.8 331 563.6 333.1C561.5 335.2 560.4 338 560.4 341.6V371H546V317.9Z" fill="#204E27"/>
<path d="M194.1 371.8V372.6C194.1 373.9 193 375 191.7 375C191.1 375 190.6 374.8 190.2 374.5C189.6 374.1 189.3 373.4 189.3 372.6V372.3H191.1C192.1 372.3 193.1 372.1 194.1 371.8ZM170.6 372.3C169.6 372.3 168.6 372.1 167.7 371.8V372.6C167.7 373.9 168.8 375 170.1 375C171.4 375 172.5 373.9 172.5 372.6V372.3H170.6ZM182.6 310.3H179.1C178.4 310.3 177.9 310.8 177.9 311.5C177.9 312.1 178.4 312.7 179.1 312.7H182.6C183.3 312.7 183.8 312.2 183.8 311.5C183.8 310.8 183.2 310.3 182.6 310.3ZM177.4 311.5C176.1 312 175.1 313.3 175.1 314.8V315.5L176.3 316.5V314.8C176.3 313.8 176.9 313 177.7 312.6C177.6 312.3 177.4 311.9 177.4 311.5ZM184.3 311.4C184.3 311.9 184.1 312.3 183.9 312.6C184.7 313 185.3 313.8 185.3 314.8V316.9L186.5 315.8V314.8C186.6 313.2 185.6 311.9 184.3 311.4Z" fill="#E06329"/>
<path d="M177.6 232C178.1 232.8 177.9 233.8 177.1 234.3C176.8 234.5 176.5 234.6 176.2 234.6C175.7 234.6 175.1 234.3 174.8 233.9C173 231.2 171.2 228.3 169.5 225.4C169 224.6 169.3 223.6 170.1 223.1C170.9 222.6 171.9 222.9 172.4 223.7C174 226.5 175.8 229.3 177.6 232ZM167.4 214.2C166 211.3 164.8 208.7 163.8 206.1C163.5 205.2 162.5 204.8 161.6 205.2C160.7 205.5 160.3 206.5 160.7 207.4C161.8 210.1 163 212.8 164.4 215.7L164.8 216.5C165.1 217.1 165.7 217.4 166.3 217.4C166.5 217.4 166.8 217.3 167 217.2C167.8 216.8 168.2 215.8 167.8 215L167.4 214.2Z" fill="#204E27"/>
<path d="M169.4 147.7L159.3 148.8L152.7 149.5C144.2 150.5 137.5 153.2 132.5 157.6C118.8 170.1 111.1 185.2 109.1 202.8H51.2002V237.4H59.0002H147.7H202.9V140L203 139.6V129.2C202.9 129.1 197.2 143.3 169.4 147.7ZM173.4 202.9H147.6H138.8C138.6 201.7 138.5 200.6 138.5 199.5C138.5 192.8 141.1 186.8 146.3 181.6C151.5 176.4 157.5 173.8 164.5 173.8C167.2 173.8 170.2 174.3 173.4 175.2V202.9Z" fill="#E06329"/>
<path d="M513.8 202.9C514.2 203.9 514.6 204.9 514.8 206C515 206.7 515 207.5 515.1 208.3C515.1 208.5 515.1 208.6 515.1 208.8C515.1 210.3 514.9 211.7 514.5 213C512.7 218.9 507.2 223.3 500.7 223.3C494.2 223.3 488.7 219 486.9 213.1C486.5 211.8 486.3 210.4 486.3 209C486.3 206.8 486.7 204.8 487.6 202.9H435.5H411.3H410.6H406.5C403.8 204.9 400.6 206 397 206C393.5 206 390.2 204.8 387.5 202.9H352.6H332V172.4C332 164.1 329.2 157.4 323.5 152.1C317.8 146.8 310.8 144.2 302.3 144.2H267.9H254.5C250.5 144.2 246.1 142.6 241.5 139.3C237.1 136.4 233.8 133.1 231.7 129.2V173.9H267.9H289.6C292.5 173.9 295.3 175 298.1 177.2C300.9 179.4 302.3 181.9 302.3 184.5V202.9H215V237.5H286.6H590.4V202.9H513.8Z" fill="#E06329"/>
<path d="M421.1 161.2C421.7 161.9 421.6 163 420.9 163.6C420.6 163.9 420.3 164.1 420 164.4C418 166.2 415.9 168.1 413.8 170.3C413.5 170.6 413 170.8 412.6 170.8C412.2 170.8 411.7 170.6 411.4 170.3C410.7 169.6 410.7 168.6 411.4 167.9C413.6 165.7 415.7 163.7 417.8 161.9C418.1 161.6 418.4 161.3 418.8 161.1C419.4 160.5 420.5 160.5 421.1 161.2ZM404.5 175.2C402.2 177.7 399.9 180.4 397.9 182.7C397.3 183.4 397.4 184.5 398.1 185.1C398.4 185.4 398.8 185.5 399.2 185.5C399.7 185.5 400.1 185.3 400.5 184.9C402.5 182.6 404.8 180 407 177.5C407.6 176.8 407.6 175.8 406.9 175.1C406.1 174.5 405.1 174.6 404.5 175.2Z" fill="#204E27"/>
<path d="M396.9 149.4C374.5 149.4 356.3 167.6 356.3 190C356.3 194.5 357 198.9 358.4 202.9C362.1 214 370.6 223 381.3 227.4C386.1 229.4 391.4 230.5 396.9 230.5C414.8 230.5 430 218.9 435.4 202.9C436.8 198.8 437.5 194.5 437.5 190C437.5 167.5 419.3 149.4 396.9 149.4ZM396.9 206C393.4 206 390.1 204.8 387.4 202.9C383.4 200 380.8 195.3 380.8 190C380.8 181.1 388 173.9 396.9 173.9C405.8 173.9 413 181.1 413 190C413 195.3 410.4 200 406.4 202.9C403.7 204.9 400.4 206 396.9 206Z" fill="#E06329"/>
<path d="M505 225.2C504.9 225.2 504.7 225.3 504.6 225.3C503.9 225.3 503.2 224.8 503 224.1L500.4 214.5C500.2 213.6 500.7 212.7 501.6 212.4C502.5 212.2 503.4 212.7 503.7 213.6L506.3 223.2C506.5 224 505.9 225 505 225.2ZM511.4 242.3L508.8 232.7C508.6 231.8 507.6 231.3 506.7 231.5C505.8 231.7 505.3 232.7 505.5 233.6L508.1 243.2C508.3 243.9 509 244.4 509.7 244.4C509.8 244.4 510 244.4 510.1 244.3C511.1 244.1 511.6 243.2 511.4 242.3ZM521.8 280.7L519.2 271.1C519 270.2 518 269.7 517.1 269.9C516.2 270.1 515.7 271.1 515.9 272L518.5 281.6C518.7 282.3 519.4 282.8 520.1 282.8C520.2 282.8 520.4 282.8 520.5 282.7C521.5 282.5 522 281.6 521.8 280.7ZM516.6 261.5L514 251.9C513.8 251 512.8 250.5 511.9 250.7C511 250.9 510.5 251.9 510.7 252.8L513.3 262.4C513.5 263.1 514.2 263.6 514.9 263.6C515 263.6 515.2 263.6 515.3 263.5C516.3 263.3 516.8 262.4 516.6 261.5Z" fill="#204E27"/>
<path d="M540.501 202.9C540.001 200 539.201 197.1 538.101 194.5C531.401 178.2 514.401 167.3 495.601 169.7C480.601 171.6 468.601 181.5 463.201 194.5C462.101 197.2 461.201 200 460.701 202.9C459.901 207.5 459.901 212.2 460.701 217C461.401 221.1 462.501 225.1 463.801 229C464.801 231.9 465.901 234.7 467.101 237.4C467.901 239.2 468.801 241.1 469.801 242.8C476.901 256 484.401 269 491.801 282C494.601 287 497.601 291.9 500.601 296.9C501.001 296.2 501.401 295.7 501.701 295.1C505.901 288 510.201 280.8 514.401 273.7C521.401 261.8 528.501 250 534.101 237.3C535.301 234.5 536.501 231.7 537.501 228.9C539.501 223.1 540.901 217.1 541.101 210.9C541.101 208.2 540.901 205.5 540.501 202.9ZM514.401 213C512.601 218.9 507.101 223.3 500.601 223.3C494.101 223.3 488.601 219 486.801 213.1C486.401 211.8 486.201 210.4 486.201 209C486.201 206.8 486.601 204.8 487.501 202.9C489.601 198.1 494.201 194.8 499.701 194.5C500.001 194.5 500.301 194.5 500.601 194.5C500.901 194.5 501.201 194.5 501.501 194.5C506.301 194.8 510.401 197.3 512.801 201C513.201 201.6 513.601 202.3 513.901 202.9C514.301 203.9 514.701 204.9 514.901 206C515.101 206.7 515.101 207.5 515.201 208.3C515.201 208.5 515.201 208.6 515.201 208.8C515.001 210.3 514.801 211.7 514.401 213ZM590.401 57.1001V225.4H560.901L560.701 190.8V90.8001V90.0001C560.701 81.9001 563.801 75.3001 569.901 70.1001L590.401 57.1001Z" fill="#E06329"/>
<path d="M612.901 70.7001C606.401 76.3001 603.101 83.0001 603.101 90.9001V120.4V125.1V237.6H632.801V125V120.3V57.1001C626.301 61.5001 619.701 66.0001 612.901 70.7001Z" fill="#E06329"/>
<path d="M189.8 247.3C190.4 248 190.4 249 189.7 249.7C189.4 250 189 250.2 188.5 250.2C188.1 250.2 187.6 250 187.3 249.7L186.8 249.2C184.7 247 182.6 244.6 180.6 242.1C180 241.4 180.1 240.3 180.9 239.7C181.6 239.1 182.7 239.2 183.3 240C185.2 242.4 187.2 244.7 189.3 246.9L189.8 247.3ZM315.2 252.8C312.3 254.5 309.4 256 306.5 257.5C305.7 257.9 305.4 258.9 305.8 259.8C306.1 260.4 306.7 260.7 307.3 260.7C307.6 260.7 307.8 260.6 308.1 260.5C311 259 314 257.4 316.9 255.7C317.7 255.2 318 254.2 317.5 253.4C317 252.6 316 252.3 315.2 252.8ZM188.9 82.1002C189.7 81.6002 189.8 80.5001 189.3 79.8001C188.8 79.0001 187.7 78.9001 187 79.4001C184.2 81.3001 181.6 83.4002 179 85.7002C178.3 86.3002 178.2 87.4002 178.9 88.1002C179.2 88.5002 179.7 88.7002 180.2 88.7002C180.6 88.7002 181 88.6001 181.3 88.3001C183.7 86.0001 186.3 84.0002 188.9 82.1002ZM221.9 268.9C218.9 267.8 215.9 266.4 213 264.9C212.2 264.5 211.2 264.8 210.7 265.6C210.3 266.4 210.6 267.4 211.4 267.9C214.4 269.5 217.5 270.9 220.7 272C220.9 272.1 221.1 272.1 221.3 272.1C222 272.1 222.6 271.7 222.9 271C223.2 270.2 222.7 269.3 221.9 268.9ZM297.7 261.8C296.1 262.5 294.5 263.2 292.9 263.9C291.5 264.5 290 265.1 288.6 265.6C287.7 265.9 287.3 266.9 287.6 267.8C287.9 268.5 288.5 268.9 289.2 268.9C289.4 268.9 289.6 268.9 289.8 268.8C291.3 268.2 292.7 267.6 294.2 267C295.8 266.3 297.4 265.6 299 264.9C299.8 264.5 300.2 263.5 299.8 262.7C299.6 261.8 298.6 261.5 297.7 261.8ZM240.8 273.3C237.5 273 234.3 272.5 231.2 271.7C230.3 271.5 229.4 272.1 229.2 273C229 273.9 229.6 274.8 230.5 275C233.8 275.7 237.1 276.3 240.5 276.6C240.6 276.6 240.6 276.6 240.7 276.6C241.6 276.6 242.3 276 242.4 275.1C242.4 274.2 241.7 273.4 240.8 273.3ZM279.4 268.9C276.2 269.9 273 270.7 269.9 271.4C269 271.6 268.4 272.5 268.6 273.4C268.8 274.2 269.5 274.7 270.2 274.7C270.3 274.7 270.4 274.7 270.6 274.7C273.8 274 277.1 273.1 280.3 272.2C281.2 271.9 281.7 271 281.4 270.1C281.2 269.1 280.3 268.6 279.4 268.9ZM260.2 273C256.9 273.4 253.6 273.6 250.5 273.7C249.6 273.7 248.8 274.5 248.9 275.4C248.9 276.3 249.7 277 250.6 277C253.9 276.9 257.3 276.7 260.7 276.3C261.6 276.2 262.3 275.4 262.2 274.4C262 273.5 261.2 272.9 260.2 273ZM204.6 260C202 258.2 199.4 256.2 196.9 254.1C196.2 253.5 195.1 253.6 194.5 254.3C193.9 255 194 256.1 194.7 256.7C197.3 258.9 200 261 202.7 262.9C203 263.1 203.3 263.2 203.6 263.2C204.1 263.2 204.7 262.9 205 262.5C205.6 261.5 205.4 260.5 204.6 260ZM174.2 92.6002C173.5 92.0002 172.5 92.0002 171.8 92.7002C169.5 95.2002 167.4 97.9002 165.5 100.7C165 101.5 165.2 102.5 165.9 103C166.2 103.2 166.5 103.3 166.9 103.3C167.4 103.3 168 103 168.3 102.6C170.1 100 172.2 97.4002 174.3 95.0002C175 94.3002 174.9 93.3002 174.2 92.6002ZM152.5 140.1C152.6 140.1 152.7 140.1 152.7 140.1C153.5 140.1 154.2 139.5 154.4 138.7C154.9 135.4 155.5 132.2 156.3 129.1C156.5 128.2 156 127.3 155.1 127.1C154.2 126.9 153.3 127.4 153.1 128.3C152.3 131.5 151.6 134.8 151.1 138.2C151 139.1 151.6 140 152.5 140.1ZM157.1 120.8C157.3 120.9 157.5 120.9 157.7 120.9C158.4 120.9 159 120.5 159.3 119.8C160.5 116.8 161.8 113.8 163.3 110.9C163.7 110.1 163.4 109.1 162.6 108.6C161.8 108.2 160.8 108.5 160.3 109.3C158.7 112.3 157.3 115.4 156.1 118.5C155.8 119.5 156.2 120.5 157.1 120.8ZM195.1 76.5002C195.4 77.1002 196 77.4001 196.6 77.4001C196.9 77.4001 197.1 77.3002 197.4 77.2002C198.8 76.4002 200.3 75.7002 201.8 75.0002L200.5 71.9001C200.4 71.9001 198.6 72.6002 195.8 74.1002C195 74.5002 194.7 75.5001 195.1 76.3001C195 76.4001 195 76.5002 195.1 76.5002ZM151.9 159.9C152.8 159.9 153.5 159.1 153.5 158.2C153.4 156.6 153.4 155 153.4 153.5C153.4 151.8 153.4 150.1 153.5 148.5C153.5 147.6 152.8 146.8 151.9 146.7C151 146.7 150.2 147.4 150.1 148.3C150 150 150 151.8 150 153.5C150 155.1 150 156.7 150.1 158.4C150.2 159.2 150.9 159.9 151.9 159.9ZM155.8 177.7C155.2 174.4 154.7 171.2 154.3 168C154.2 167.1 153.4 166.4 152.4 166.5C151.5 166.6 150.8 167.4 150.9 168.4C151.3 171.6 151.8 175 152.4 178.3C152.6 179.1 153.3 179.7 154 179.7C154.1 179.7 154.2 179.7 154.3 179.7C155.3 179.5 155.9 178.6 155.8 177.7ZM160.5 196.8C159.5 193.6 158.6 190.4 157.9 187.3C157.7 186.4 156.8 185.9 155.9 186.1C155.2 186.3 154.7 186.9 154.6 187.5C154.3 187.9 154.2 188.4 154.4 188.9C154.9 190.5 155.4 192.2 155.9 193.8C156 194.1 156.2 194.3 156.4 194.5C156.7 195.6 157 196.7 157.4 197.8C157.6 198.5 158.3 199 159 199C159.2 199 159.3 199 159.5 198.9C160.3 198.6 160.8 197.7 160.5 196.8ZM482 157.7C481.4 157 480.4 156.9 479.6 157.5C478.9 158.1 478.8 159.1 479.4 159.9C481.3 162.2 483.2 164.9 484.9 167.8C485.2 168.3 485.8 168.6 486.3 168.6C486.6 168.6 486.9 168.5 487.1 168.4C487.9 167.9 488.2 166.9 487.7 166.1C486 163 484 160.2 482 157.7ZM501.2 204C500.4 200.4 499.6 197.2 498.8 194.3C498.6 193.4 497.6 192.9 496.7 193.1C495.8 193.3 495.3 194.3 495.5 195.2C496.3 198.1 497.1 201.3 497.9 204.8C498.1 205.6 498.8 206.1 499.5 206.1C499.6 206.1 499.8 206.1 499.9 206.1C500.9 205.8 501.4 204.9 501.2 204ZM495.9 184.6C494.8 181.2 493.6 178.1 492.3 175.2C491.9 174.4 490.9 174 490.1 174.3C489.3 174.7 488.9 175.7 489.2 176.5C490.4 179.3 491.6 182.4 492.7 185.7C492.9 186.4 493.6 186.8 494.3 186.8C494.5 186.8 494.7 186.8 494.8 186.7C495.7 186.4 496.2 185.5 495.9 184.6ZM527 299.9L524.4 290.3C524.2 289.4 523.2 288.9 522.3 289.1C521.4 289.3 520.9 290.3 521.1 291.2L523.7 300.8C523.9 301.5 524.6 302 525.3 302C525.4 302 525.6 302 525.7 301.9C526.7 301.7 527.2 300.8 527 299.9ZM474.5 150.6C471.6 148.5 468.6 146.9 465.3 145.7C464.4 145.4 463.5 145.9 463.2 146.7C462.9 147.6 463.4 148.5 464.2 148.8C467.1 149.8 469.9 151.3 472.5 153.2C472.8 153.4 473.1 153.5 473.5 153.5C474 153.5 474.5 153.3 474.9 152.8C475.4 152.2 475.2 151.2 474.5 150.6ZM455 144C451.7 144 448.2 144.5 444.7 145.6C443.8 145.9 443.3 146.8 443.6 147.7C443.8 148.4 444.5 148.9 445.2 148.9C445.4 148.9 445.5 148.9 445.7 148.8C448.9 147.9 452 147.4 455 147.4C455.9 147.4 456.7 146.6 456.7 145.7C456.7 144.8 455.9 144 455 144ZM391.3 190.2C388.8 192.9 386.6 195.3 384.6 197.4C383.9 198.1 384 199.1 384.6 199.8C384.9 200.1 385.4 200.3 385.8 200.3C386.2 200.3 386.7 200.1 387 199.8C389.1 197.7 391.4 195.3 393.8 192.5C394.4 191.8 394.4 190.8 393.7 190.1C393 189.4 392 189.5 391.3 190.2ZM362.9 217.7C360.4 219.9 357.9 222.1 355.4 224.2C354.7 224.8 354.6 225.9 355.2 226.6C355.5 227 356 227.2 356.5 227.2C356.9 227.2 357.3 227.1 357.6 226.8C360.1 224.7 362.6 222.5 365.2 220.3C365.9 219.7 366 218.6 365.3 217.9C364.7 217.2 363.6 217.1 362.9 217.7ZM347.8 230.4C345.2 232.5 342.5 234.5 340 236.4C339.3 237 339.1 238 339.7 238.7C340 239.1 340.5 239.4 341 239.4C341.3 239.4 341.7 239.3 342 239.1C344.6 237.2 347.3 235.1 349.9 233C350.6 232.4 350.7 231.4 350.2 230.6C349.5 230 348.5 229.9 347.8 230.4ZM377.5 204.3C375.1 206.6 372.6 208.9 370.3 211.1C369.6 211.7 369.6 212.8 370.2 213.5C370.5 213.9 371 214 371.4 214C371.8 214 372.2 213.9 372.5 213.6C374.9 211.4 377.3 209.1 379.8 206.8C380.5 206.2 380.5 205.1 379.9 204.4C379.2 203.7 378.2 203.6 377.5 204.3ZM435.3 149.5C432.5 151 429.6 152.8 426.7 154.8C425.9 155.3 425.8 156.4 426.3 157.1C426.6 157.6 427.1 157.8 427.7 157.8C428 157.8 428.4 157.7 428.7 157.5C431.5 155.5 434.3 153.8 437 152.4C437.8 152 438.1 151 437.7 150.1C437.1 149.4 436.1 149.1 435.3 149.5ZM331.9 242.2C329.2 244.1 326.4 245.9 323.7 247.7C322.9 248.2 322.7 249.2 323.2 250C323.5 250.5 324.1 250.8 324.6 250.8C324.9 250.8 325.2 250.7 325.5 250.5C328.3 248.7 331.1 246.9 333.8 245C334.6 244.5 334.8 243.4 334.2 242.7C333.7 241.9 332.7 241.7 331.9 242.2Z" fill="#204E27"/>
<path d="M266.8 47.2L249.8 56L243.9 84.9C243.4 87.3 242.6 89.2001 241.5 90.7001L238.2 92.4L233 63.9L210.3 73.1001L208.8 80.3L207.2 87.9C206.9 89.2 206.5 90.2 205.9 91L204.2 91.9L202.8 84L201.6 77.3L200.9 73.4L198.1 70.6001L193.3 65.8L187.7 60.1001L189.4 59.2001C190.4 59.2001 191.4 59.4 192.6 59.9L199.7 63L206.4 65.9L226.9 52.6001L206.6 32L209.9 30.3C211.8 30.3 213.8 30.7 216.1 31.7L243.2 43.4L260.2 34.5C264.1 32.5 271.7 32.5001 273.4 35.6001C273.4 35.6001 273.4 35.7 273.5 35.7L273.6 35.8C275.1 38.9 270.7 45.2 266.8 47.2Z" fill="#204E27"/>
<path d="M392.4 108.3C392.4 116.5 385.8 123.1 377.6 123.1C369.4 123.1 362.8 116.5 362.8 108.3C362.8 100.1 369.4 93.5 377.6 93.5C385.8 93.5 392.4 100.1 392.4 108.3ZM414.9 93.5C406.7 93.5 400.1 100.1 400.1 108.3C400.1 116.5 406.7 123.1 414.9 123.1C423.1 123.1 429.7 116.5 429.7 108.3C429.7 100.1 423.1 93.5 414.9 93.5Z" fill="#204E27"/>
</svg>
