<?xml version="1.0" encoding="utf-8"?>
<!-- Generator: Adobe Illustrator 28.2.0, SVG Export Plug-In . SVG Version: 6.00 Build 0)  -->
<svg version="1.1" id="Layer_1" xmlns="http://www.w3.org/2000/svg" xmlns:xlink="http://www.w3.org/1999/xlink" x="0px" y="0px"
	 viewBox="0 0 1190.6 841.9" style="enable-background:new 0 0 1190.6 841.9;" xml:space="preserve">
<style type="text/css">
	.st0{fill:#E06329;}
	.st1{fill:#204E27;}
</style>
<g id="Final">
	<g>
		<g>
			<g>
				<polygon class="st0" points="307.1,605.4 314.9,605.4 314.9,602.9 307.1,602.9 307.1,598.7 315.9,598.7 315.9,596.2 304,596.2 
					304,612.5 316.3,612.5 316.3,609.9 307.1,609.9 				"/>
			</g>
			<g>
				<polygon class="st0" points="337.5,596.2 334.2,596.2 330.1,601.9 326,596.2 322.5,596.2 328.3,604.1 322.2,612.5 325.7,612.5 
					330,606.2 334.5,612.5 338,612.5 331.8,604 				"/>
			</g>
			<g>
				<g>
					<path class="st0" d="M355,596.9c-1-0.5-2.3-0.7-3.7-0.7h-6.7v16.3h3v-4.7h3.7c1.4,0,2.7-0.2,3.7-0.7c1-0.5,1.8-1.1,2.4-2
						s0.8-1.9,0.8-3.1c0-1.2-0.3-2.2-0.8-3.1C356.8,598,356,597.3,355,596.9z M354.1,604.3c-0.7,0.6-1.7,0.8-3,0.8h-3.5v-6.5h3.5
						c1.3,0,2.3,0.3,3,0.8c0.7,0.6,1,1.4,1,2.4C355.1,603,354.8,603.8,354.1,604.3z"/>
				</g>
			</g>
			<g>
				<polygon class="st0" points="369,596.2 366,596.2 366,612.5 377.5,612.5 377.5,609.9 369,609.9 				"/>
			</g>
			<g>
				<g>
					<path class="st0" d="M398.3,598.3c-0.8-0.8-1.7-1.3-2.8-1.8c-1.1-0.4-2.2-0.6-3.5-0.6c-1.3,0-2.4,0.2-3.5,0.6
						c-1.1,0.4-2,1-2.8,1.8c-0.8,0.8-1.4,1.6-1.8,2.7c-0.4,1-0.7,2.1-0.7,3.3c0,1.2,0.2,2.3,0.7,3.3c0.4,1,1,1.9,1.8,2.7
						c0.8,0.8,1.7,1.3,2.8,1.8c1.1,0.4,2.2,0.6,3.5,0.6c1.3,0,2.4-0.2,3.5-0.6c1.1-0.4,2-1,2.8-1.7c0.8-0.7,1.4-1.6,1.8-2.7
						c0.4-1,0.7-2.1,0.7-3.4c0-1.2-0.2-2.3-0.7-3.3C399.7,599.9,399,599.1,398.3,598.3z M397.3,606.6c-0.3,0.7-0.7,1.3-1.2,1.8
						c-0.5,0.5-1.1,0.9-1.8,1.2c-0.7,0.3-1.5,0.4-2.3,0.4c-0.8,0-1.6-0.1-2.3-0.4c-0.7-0.3-1.3-0.7-1.8-1.2
						c-0.5-0.5-0.9-1.1-1.2-1.8c-0.3-0.7-0.4-1.5-0.4-2.3c0-0.8,0.1-1.6,0.4-2.3c0.3-0.7,0.7-1.3,1.2-1.8c0.5-0.5,1.1-0.9,1.8-1.2
						c0.7-0.3,1.4-0.4,2.3-0.4c0.8,0,1.6,0.1,2.3,0.4c0.7,0.3,1.3,0.7,1.8,1.2c0.5,0.5,0.9,1.1,1.2,1.8c0.3,0.7,0.4,1.5,0.4,2.3
						C397.7,605.1,397.6,605.9,397.3,606.6z"/>
				</g>
			</g>
			<g>
				<g>
					<path class="st0" d="M419.1,607c1-0.5,1.8-1.1,2.4-2c0.6-0.9,0.8-1.9,0.8-3.1c0-1.2-0.3-2.2-0.8-3.1c-0.6-0.9-1.4-1.5-2.4-2
						c-1-0.5-2.3-0.7-3.7-0.7h-6.7v16.3h3v-4.8h3.7c0.2,0,0.4,0,0.6,0l3.3,4.8h3.3l-3.7-5.3C419,607.1,419.1,607,419.1,607z
						 M418.3,599.6c0.7,0.6,1,1.4,1,2.4c0,1-0.3,1.8-1,2.4c-0.7,0.6-1.7,0.9-3,0.9h-3.5v-6.5h3.5C416.6,598.7,417.6,599,418.3,599.6
						z"/>
				</g>
			</g>
			<g>
				<polygon class="st0" points="433.5,605.4 441.4,605.4 441.4,602.9 433.5,602.9 433.5,598.7 442.4,598.7 442.4,596.2 
					430.5,596.2 430.5,612.5 442.7,612.5 442.7,609.9 433.5,609.9 				"/>
			</g>
			<g>
				<g>
					<path class="st0" d="M474.1,604.2c-0.2-0.1-0.4-0.2-0.6-0.2c0.6-0.3,1.1-0.8,1.5-1.4c0.4-0.6,0.6-1.4,0.6-2.2
						c0-1.3-0.5-2.3-1.5-3.1c-1-0.8-2.5-1.2-4.5-1.2H462v16.3h8.1c2.1,0,3.7-0.4,4.8-1.2c1.1-0.8,1.6-1.9,1.6-3.3
						c0-0.9-0.2-1.7-0.6-2.4S474.8,604.5,474.1,604.2z M469.3,598.5c1.1,0,1.9,0.2,2.4,0.6c0.6,0.4,0.8,0.9,0.8,1.7
						c0,0.7-0.3,1.3-0.8,1.7s-1.4,0.6-2.4,0.6H465v-4.5H469.3z M472.5,609.5c-0.6,0.4-1.5,0.6-2.6,0.6H465v-4.7h4.9
						c1.1,0,2,0.2,2.6,0.6c0.6,0.4,0.9,1,0.9,1.8C473.4,608.5,473.1,609.1,472.5,609.5z"/>
				</g>
			</g>
			<g>
				<polygon class="st0" points="487.5,605.4 495.4,605.4 495.4,602.9 487.5,602.9 487.5,598.7 496.4,598.7 496.4,596.2 
					484.5,596.2 484.5,612.5 496.7,612.5 496.7,609.9 487.5,609.9 				"/>
			</g>
			<g>
				<polygon class="st0" points="515.1,596.2 510.2,604.1 505.5,596.2 502.2,596.2 508.6,606.7 508.6,612.5 511.7,612.5 
					511.7,606.7 518,596.2 				"/>
			</g>
			<g>
				<g>
					<path class="st0" d="M538,598.3c-0.8-0.8-1.7-1.3-2.8-1.8c-1.1-0.4-2.2-0.6-3.5-0.6c-1.3,0-2.4,0.2-3.5,0.6
						c-1.1,0.4-2,1-2.8,1.8c-0.8,0.8-1.4,1.6-1.8,2.7c-0.4,1-0.7,2.1-0.7,3.3c0,1.2,0.2,2.3,0.7,3.3c0.4,1,1,1.9,1.8,2.7
						c0.8,0.8,1.7,1.3,2.8,1.8c1.1,0.4,2.2,0.6,3.5,0.6c1.3,0,2.4-0.2,3.5-0.6c1.1-0.4,2-1,2.8-1.7c0.8-0.7,1.4-1.6,1.8-2.7
						c0.4-1,0.7-2.1,0.7-3.4c0-1.2-0.2-2.3-0.7-3.3C539.4,599.9,538.8,599.1,538,598.3z M537,606.6c-0.3,0.7-0.7,1.3-1.2,1.8
						c-0.5,0.5-1.1,0.9-1.8,1.2c-0.7,0.3-1.5,0.4-2.3,0.4c-0.8,0-1.6-0.1-2.3-0.4c-0.7-0.3-1.3-0.7-1.8-1.2
						c-0.5-0.5-0.9-1.1-1.2-1.8c-0.3-0.7-0.4-1.5-0.4-2.3c0-0.8,0.1-1.6,0.4-2.3c0.3-0.7,0.7-1.3,1.2-1.8c0.5-0.5,1.1-0.9,1.8-1.2
						c0.7-0.3,1.4-0.4,2.3-0.4c0.8,0,1.6,0.1,2.3,0.4c0.7,0.3,1.3,0.7,1.8,1.2c0.5,0.5,0.9,1.1,1.2,1.8c0.3,0.7,0.4,1.5,0.4,2.3
						C537.4,605.1,537.3,605.9,537,606.6z"/>
				</g>
			</g>
			<g>
				<polygon class="st0" points="559.9,607.2 550.9,596.2 548.4,596.2 548.4,612.5 551.4,612.5 551.4,601.4 560.4,612.5 
					562.9,612.5 562.9,596.2 559.9,596.2 				"/>
			</g>
			<g>
				<g>
					<path class="st0" d="M583.8,597.2c-1.3-0.7-2.9-1-4.7-1H572v16.3h7.1c1.8,0,3.3-0.3,4.7-1c1.3-0.7,2.4-1.6,3.1-2.9
						c0.7-1.2,1.1-2.6,1.1-4.3c0-1.6-0.4-3.1-1.1-4.3C586.2,598.8,585.2,597.9,583.8,597.2z M584.3,607.2c-0.5,0.8-1.2,1.5-2.1,2
						c-0.9,0.5-2,0.7-3.2,0.7h-4v-11.2h4c1.2,0,2.3,0.2,3.2,0.7c0.9,0.5,1.6,1.1,2.1,1.9c0.5,0.8,0.7,1.8,0.7,2.9
						C585,605.4,584.8,606.4,584.3,607.2z"/>
				</g>
			</g>
			<g>
				<polygon class="st0" points="605.1,598.7 610.5,598.7 610.5,612.5 613.5,612.5 613.5,598.7 618.9,598.7 618.9,596.2 
					605.1,596.2 				"/>
			</g>
			<g>
				<polygon class="st0" points="637.4,602.9 629,602.9 629,596.2 626,596.2 626,612.5 629,612.5 629,605.5 637.4,605.5 
					637.4,612.5 640.4,612.5 640.4,596.2 637.4,596.2 				"/>
			</g>
			<g>
				<polygon class="st0" points="652.6,605.4 660.5,605.4 660.5,602.9 652.6,602.9 652.6,598.7 661.5,598.7 661.5,596.2 
					649.6,596.2 649.6,612.5 661.8,612.5 661.8,609.9 652.6,609.9 				"/>
			</g>
			<g>
				<g>
					<path class="st0" d="M693.2,604.2c-0.2-0.1-0.4-0.2-0.6-0.2c0.6-0.3,1.1-0.8,1.5-1.4c0.4-0.6,0.6-1.4,0.6-2.2
						c0-1.3-0.5-2.3-1.5-3.1c-1-0.8-2.5-1.2-4.5-1.2h-7.6v16.3h8.1c2.1,0,3.7-0.4,4.8-1.2c1.1-0.8,1.6-1.9,1.6-3.3
						c0-0.9-0.2-1.7-0.6-2.4C694.5,605,693.9,604.5,693.2,604.2z M688.4,598.5c1.1,0,1.9,0.2,2.4,0.6c0.6,0.4,0.8,0.9,0.8,1.7
						c0,0.7-0.3,1.3-0.8,1.7s-1.4,0.6-2.4,0.6h-4.3v-4.5H688.4z M691.6,609.5c-0.6,0.4-1.5,0.6-2.6,0.6h-4.9v-4.7h4.9
						c1.1,0,2,0.2,2.6,0.6c0.6,0.4,0.9,1,0.9,1.8C692.5,608.5,692.2,609.1,691.6,609.5z"/>
				</g>
			</g>
			<g>
				<g>
					<path class="st0" d="M717.5,598.3c-0.8-0.8-1.7-1.3-2.8-1.8c-1.1-0.4-2.2-0.6-3.5-0.6c-1.3,0-2.4,0.2-3.5,0.6
						c-1.1,0.4-2,1-2.8,1.8c-0.8,0.8-1.4,1.6-1.8,2.7c-0.4,1-0.7,2.1-0.7,3.3c0,1.2,0.2,2.3,0.7,3.3c0.4,1,1,1.9,1.8,2.7
						c0.8,0.8,1.7,1.3,2.8,1.8c1.1,0.4,2.2,0.6,3.5,0.6c1.3,0,2.4-0.2,3.5-0.6c1.1-0.4,2-1,2.8-1.7c0.8-0.7,1.4-1.6,1.8-2.7
						c0.4-1,0.7-2.1,0.7-3.4c0-1.2-0.2-2.3-0.7-3.3C718.9,599.9,718.3,599.1,717.5,598.3z M716.5,606.6c-0.3,0.7-0.7,1.3-1.2,1.8
						c-0.5,0.5-1.1,0.9-1.8,1.2s-1.5,0.4-2.3,0.4c-0.8,0-1.6-0.1-2.3-0.4c-0.7-0.3-1.3-0.7-1.8-1.2c-0.5-0.5-0.9-1.1-1.2-1.8
						c-0.3-0.7-0.4-1.5-0.4-2.3c0-0.8,0.1-1.6,0.4-2.3c0.3-0.7,0.7-1.3,1.2-1.8c0.5-0.5,1.1-0.9,1.8-1.2c0.7-0.3,1.4-0.4,2.3-0.4
						c0.8,0,1.6,0.1,2.3,0.4s1.3,0.7,1.8,1.2c0.5,0.5,0.9,1.1,1.2,1.8c0.3,0.7,0.4,1.5,0.4,2.3C716.9,605.1,716.8,605.9,716.5,606.6
						z"/>
				</g>
			</g>
			<g>
				<path class="st0" d="M739.1,605.2c0,1.7-0.4,2.9-1.1,3.7c-0.7,0.8-1.7,1.1-3,1.1c-1.3,0-2.3-0.4-3.1-1.1c-0.7-0.8-1.1-2-1.1-3.7
					v-9.1h-3v9.2c0,2.4,0.6,4.2,1.9,5.4c1.3,1.3,3,1.9,5.3,1.9c2.2,0,4-0.6,5.2-1.9c1.3-1.3,1.9-3.1,1.9-5.4v-9.2h-3V605.2z"/>
			</g>
			<g>
				<polygon class="st0" points="762.5,607.2 753.5,596.2 751,596.2 751,612.5 754,612.5 754,601.4 763,612.5 765.5,612.5 
					765.5,596.2 762.5,596.2 				"/>
			</g>
			<g>
				<g>
					<path class="st0" d="M786.4,597.2c-1.3-0.7-2.9-1-4.7-1h-7.1v16.3h7.1c1.8,0,3.3-0.3,4.7-1c1.3-0.7,2.4-1.6,3.1-2.9
						c0.7-1.2,1.1-2.6,1.1-4.3c0-1.6-0.4-3.1-1.1-4.3C788.8,598.8,787.8,597.9,786.4,597.2z M786.9,607.2c-0.5,0.8-1.2,1.5-2.1,2
						c-0.9,0.5-2,0.7-3.2,0.7h-4v-11.2h4c1.2,0,2.3,0.2,3.2,0.7c0.9,0.5,1.6,1.1,2.1,1.9c0.5,0.8,0.7,1.8,0.7,2.9
						C787.6,605.4,787.4,606.4,786.9,607.2z"/>
				</g>
			</g>
			<g>
				<g>
					<path class="st0" d="M803.4,596.2l-7.3,16.3h3.1l1.6-3.8h8.2l1.6,3.8h3.2l-7.4-16.3H803.4z M801.8,606.3l3.1-7.1l3.1,7.1H801.8
						z"/>
				</g>
			</g>
			<g>
				<g>
					<path class="st0" d="M831,607c1-0.5,1.8-1.1,2.4-2c0.6-0.9,0.8-1.9,0.8-3.1c0-1.2-0.3-2.2-0.8-3.1c-0.6-0.9-1.4-1.5-2.4-2
						c-1-0.5-2.3-0.7-3.7-0.7h-6.7v16.3h3v-4.8h3.7c0.2,0,0.4,0,0.6,0l3.3,4.8h3.3l-3.7-5.3C830.8,607.1,830.9,607,831,607z
						 M830.2,599.6c0.7,0.6,1,1.4,1,2.4c0,1-0.3,1.8-1,2.4c-0.7,0.6-1.7,0.9-3,0.9h-3.5v-6.5h3.5C828.5,598.7,829.5,599,830.2,599.6
						z"/>
				</g>
			</g>
			<g>
				<rect x="842.4" y="596.2" class="st0" width="3" height="16.3"/>
			</g>
			<g>
				<polygon class="st0" points="857.6,605.4 865.4,605.4 865.4,602.9 857.6,602.9 857.6,598.7 866.4,598.7 866.4,596.2 
					854.5,596.2 854.5,612.5 866.8,612.5 866.8,609.9 857.6,609.9 				"/>
			</g>
			<g>
				<path class="st0" d="M886,605.7c-0.3-0.6-0.8-1-1.4-1.3s-1.2-0.6-1.9-0.8c-0.7-0.2-1.4-0.4-2.1-0.5c-0.7-0.2-1.3-0.3-1.9-0.5
					c-0.6-0.2-1-0.4-1.4-0.7c-0.3-0.3-0.5-0.7-0.5-1.2c0-0.4,0.1-0.8,0.4-1.1c0.2-0.3,0.6-0.6,1.1-0.8c0.5-0.2,1.2-0.3,2-0.3
					c0.7,0,1.5,0.1,2.2,0.3c0.8,0.2,1.5,0.5,2.3,1l1-2.4c-0.7-0.5-1.6-0.8-2.5-1.1c-1-0.2-1.9-0.4-2.9-0.4c-1.5,0-2.7,0.2-3.7,0.7
					c-1,0.4-1.7,1-2.2,1.8c-0.5,0.7-0.7,1.5-0.7,2.4c0,0.9,0.2,1.6,0.5,2.1c0.4,0.6,0.8,1,1.4,1.3c0.6,0.3,1.2,0.6,1.9,0.8
					c0.7,0.2,1.4,0.4,2.1,0.5c0.7,0.2,1.3,0.3,1.9,0.5c0.6,0.2,1,0.4,1.4,0.7c0.4,0.3,0.5,0.7,0.5,1.2c0,0.4-0.1,0.8-0.4,1.1
					c-0.2,0.3-0.6,0.6-1.2,0.8c-0.5,0.2-1.2,0.3-2.1,0.3c-1,0-2-0.2-3-0.5c-1-0.3-1.8-0.8-2.4-1.3l-1,2.4c0.7,0.6,1.6,1,2.8,1.4
					c1.2,0.4,2.4,0.5,3.7,0.5c1.5,0,2.7-0.2,3.7-0.7c1-0.4,1.7-1,2.2-1.8c0.5-0.7,0.7-1.5,0.7-2.4C886.5,607,886.3,606.3,886,605.7z
					"/>
			</g>
		</g>
	</g>
	<g>
		<g>
			<g>
				<g>
					<path class="st1" d="M303.7,568.5l26.7-68.7h12.8l26.7,68.7v1.7h-16l-4.5-12.7h-25.2l-4.5,12.7h-15.9V568.5z M345.1,544.4
						l-8.4-22.7l-8.3,22.7H345.1z"/>
				</g>
			</g>
			<g>
				<g>
					<path class="st1" d="M376.7,499.8h14.4v70.4h-14.4V499.8z"/>
				</g>
			</g>
			<g>
				<g>
					<path class="st1" d="M411.9,499.8l17.2,14.7v9.9h-4.6c-4.5,0-8.1,3.6-8.1,8.1v27.7c0,0,0,0,0,0v2.5c0,0.6,0.1,1.2,0.2,1.8
						c0,0,0,0,0,0c0,0,0,0.1,0,0.1c0,0,0,0,0,0c0.1,0.2,0.1,0.5,0.2,0.7c0,0,0,0,0,0c0.1,0.4,0.4,1,0.7,1.5c0.1,0.1,0.1,0.2,0.2,0.4
						c0.5,0.7,1.1,1.4,1.9,1.9c0.6,0.4,1.2,0.8,1.8,1H400v-70.4H411.9z M430.4,515.5v8.9h9v-8.6l-4.3,3.7L430.4,515.5z M458,499.8
						l-17.5,15v9.6h4.5c4.5,0,8.1,3.7,8.1,8.1v8.9c0,0,0,0,0,0v21.2c0,0.6-0.1,1.2-0.2,1.8c0,0,0,0,0,0c0,0,0,0.1,0,0.1c0,0,0,0,0,0
						c-0.1,0.2-0.1,0.5-0.2,0.7c0,0,0,0,0,0c-0.2,0.5-0.5,1.2-0.9,1.9c-0.5,0.7-1.1,1.4-1.9,1.9c-0.6,0.4-1.2,0.8-1.8,1h21.5v-70.4
						H458z"/>
				</g>
			</g>
			<g>
				<g>
					<path class="st1" d="M484.4,565.2c-3.6-4-5.3-9.8-5.3-17.4v-30.9h14.4v29.2c0,3.8,0.9,6.8,2.6,8.8c1.7,2,4.2,3.1,7.4,3.1
						c3.8,0,6.8-1.1,9-3.3c2.2-2.2,3.4-5.2,3.4-8.9v-28.9h14.4v53.3h-13.6l-0.4-6.2c-2.1,2.3-4.5,4.1-7.4,5.4
						c-2.9,1.2-6,1.9-9.4,1.9C493,571.2,488,569.2,484.4,565.2z"/>
				</g>
			</g>
			<g>
				<g>
					<path class="st1" d="M551.9,567.6c-4.1-2.4-7.2-5.8-9.4-10c-2.2-4.2-3.3-8.9-3.3-14.1c0-5.3,1.1-10.1,3.4-14.3
						c2.3-4.2,5.5-7.5,9.5-9.9c4.1-2.4,8.6-3.6,13.7-3.6c3.4,0,6.5,0.6,9.5,1.7c3,1.1,5.6,2.7,7.9,4.8l0.5-5.3h12.5v69.6h-14.4V566
						c-4.6,3.6-10,5.3-16.1,5.3C560.6,571.3,556,570.1,551.9,567.6z M557.7,553.8c2.6,2.7,6,4,10.1,4c4.2,0,7.6-1.3,10.2-4
						c2.6-2.7,4-6.1,4-10.3c0-4.2-1.3-7.6-4-10.3c-2.7-2.7-6.1-4-10.2-4c-4.1,0-7.5,1.3-10.1,4c-2.7,2.7-4,6.1-4,10.3
						C553.7,547.7,555,551.1,557.7,553.8z"/>
				</g>
			</g>
			<g>
				<g>
					<path class="st1" d="M616.3,567.7c-4.1-2.4-7.3-5.7-9.5-10c-2.2-4.2-3.4-9-3.4-14.2c0-5.4,1.2-10.2,3.5-14.4
						c2.3-4.2,5.5-7.5,9.6-9.9c4.1-2.3,8.7-3.5,13.8-3.5c6.7,0,12.5,2.1,17.3,6.4l0.5-5.3h12.5v53.3h-12.5l-0.5-5.3
						c-2.4,2.1-5,3.7-8,4.8c-3,1.1-6.1,1.7-9.4,1.7C625.1,571.3,620.4,570.1,616.3,567.7z M622,553.8c2.7,2.7,6.1,4,10.2,4
						c4.1,0,7.5-1.3,10.1-4c2.7-2.7,4-6.1,4-10.3c0-4.2-1.3-7.6-4-10.3c-2.7-2.7-6-4-10.1-4c-4.2,0-7.6,1.3-10.2,4
						c-2.7,2.7-4,6.1-4,10.3C618,547.7,619.3,551.1,622,553.8z"/>
				</g>
			</g>
			<g>
				<g>
					<path class="st1" d="M681.7,567.6c-4.1-2.4-7.2-5.8-9.4-10c-2.2-4.2-3.3-8.9-3.3-14.1c0-5.3,1.1-10.1,3.4-14.3
						c2.3-4.2,5.4-7.5,9.5-9.9c4-2.4,8.6-3.6,13.7-3.6c6.1,0,11.5,1.8,16.1,5.3v-21.3h14.4v70.4h-12.5l-0.5-5.3
						c-2.3,2.1-5,3.7-8,4.8c-3,1.1-6.2,1.7-9.5,1.7C690.4,571.3,685.8,570.1,681.7,567.6z M687.5,553.8c2.6,2.7,6,4,10.1,4
						c4.2,0,7.6-1.3,10.2-4c2.6-2.7,4-6.1,4-10.3c0-4.2-1.3-7.6-4-10.3c-2.7-2.7-6.1-4-10.2-4c-4.1,0-7.5,1.3-10.1,4
						c-2.7,2.7-4,6.1-4,10.3C683.5,547.7,684.8,551.1,687.5,553.8z"/>
				</g>
			</g>
			<g>
				<path class="st1" d="M786.2,518.1l-2.6-9.6c-0.2-0.9-1.2-1.4-2.1-1.2c-0.9,0.2-1.4,1.2-1.2,2.1l2.6,9.6c0.2,0.7,0.9,1.2,1.6,1.2
					c0.1,0,0.3,0,0.4-0.1C785.9,519.9,786.4,519,786.2,518.1z"/>
			</g>
			<g>
				<g>
					<path class="st1" d="M747.4,567.7c-4.1-2.4-7.3-5.7-9.5-10c-2.2-4.2-3.4-9-3.4-14.2c0-5.4,1.2-10.2,3.5-14.4
						c2.3-4.2,5.5-7.5,9.6-9.9c4.1-2.3,8.7-3.5,13.8-3.5c6.7,0,12.5,2.1,17.3,6.4l0.5-5.3h12.5v53.3h-12.5l-0.5-5.3
						c-2.3,2.1-5,3.7-7.9,4.8c-3,1.1-6.1,1.7-9.4,1.7C756.1,571.3,751.5,570.1,747.4,567.7z M753.1,553.8c2.6,2.7,6.1,4,10.2,4
						c4.1,0,7.5-1.3,10.1-4c2.6-2.7,4-6.1,4-10.3c0-4.2-1.3-7.6-4-10.3c-2.7-2.7-6-4-10.1-4c-4.2,0-7.6,1.3-10.2,4
						c-2.7,2.7-4,6.1-4,10.3C749.1,547.7,750.4,551.1,753.1,553.8z"/>
				</g>
			</g>
			<g>
				<g>
					<path class="st1" d="M800,516.9h13.6l0.4,6.2c1.9-2.3,4.3-4.1,7.1-5.4c2.8-1.2,5.9-1.9,9.4-1.9c3.9,0,7.2,0.8,10.1,2.3
						c2.8,1.5,5,3.8,6.6,6.7c5-6,11.4-9.1,19.2-9.1c6.6,0,11.7,2,15.2,6c3.5,4,5.2,9.8,5.2,17.4v30.9h-14.4v-29.4
						c0-3.8-0.8-6.6-2.5-8.7c-1.7-2-4.2-3-7.4-3c-3.6,0-6.5,1.1-8.7,3.2c-2.1,2.1-3.2,4.9-3.2,8.5v29.4h-14.4v-29.4
						c0-3.8-0.8-6.6-2.5-8.7c-1.7-2-4.2-3-7.4-3c-3.6,0-6.5,1.1-8.7,3.2c-2.1,2.1-3.2,4.9-3.2,8.5v29.4H800V516.9z"/>
				</g>
			</g>
		</g>
	</g>
	<path class="st0" d="M448.1,570.8v0.8c0,1.3-1.1,2.4-2.4,2.4c-0.6,0-1.1-0.2-1.5-0.5c-0.6-0.4-0.9-1.1-0.9-1.9v-0.3h1.8
		C446.1,571.3,447.1,571.1,448.1,570.8z M424.6,571.3c-1,0-2-0.2-2.9-0.5v0.8c0,1.3,1.1,2.4,2.4,2.4c1.3,0,2.4-1.1,2.4-2.4v-0.3
		H424.6z M436.6,509.3h-3.5c-0.7,0-1.2,0.5-1.2,1.2c0,0.6,0.5,1.2,1.2,1.2h3.5c0.7,0,1.2-0.5,1.2-1.2
		C437.8,509.8,437.2,509.3,436.6,509.3z M431.4,510.5L431.4,510.5c-1.3,0.5-2.3,1.8-2.3,3.3v0.7l1.2,1v-1.7c0-1,0.6-1.8,1.4-2.2
		C431.6,511.3,431.4,510.9,431.4,510.5z M438.3,510.4L438.3,510.4c0,0.5-0.2,0.9-0.4,1.2c0.8,0.4,1.4,1.2,1.4,2.2v2.1l1.2-1.1v-1
		C440.6,512.2,439.6,510.9,438.3,510.4z"/>
	<g>
		<path class="st1" d="M431.6,431c0.5,0.8,0.3,1.8-0.5,2.3c-0.3,0.2-0.6,0.3-0.9,0.3c-0.5,0-1.1-0.3-1.4-0.7
			c-1.8-2.7-3.6-5.6-5.3-8.5c-0.5-0.8-0.2-1.8,0.6-2.3c0.8-0.5,1.8-0.2,2.3,0.6C428,425.5,429.8,428.3,431.6,431z M421.4,413.2
			c-1.4-2.9-2.6-5.5-3.6-8.1c-0.3-0.9-1.3-1.3-2.2-0.9c-0.9,0.3-1.3,1.3-0.9,2.2c1.1,2.7,2.3,5.4,3.7,8.3l0.4,0.8
			c0.3,0.6,0.9,0.9,1.5,0.9c0.2,0,0.5-0.1,0.7-0.2c0.8-0.4,1.2-1.4,0.8-2.2L421.4,413.2z"/>
		<path class="st0" d="M423.4,346.7l-10.1,1.1l-6.6,0.7c-8.5,1-15.2,3.7-20.2,8.1c-13.7,12.5-21.4,27.6-23.4,45.2h-57.9v34.6h7.8
			h88.7h55.2V339l0.1-0.4v-10.4C456.9,328.1,451.2,342.3,423.4,346.7z M427.4,401.9h-25.8h-8.8c-0.2-1.2-0.3-2.3-0.3-3.4
			c0-6.7,2.6-12.7,7.8-17.9c5.2-5.2,11.2-7.8,18.2-7.8c2.7,0,5.7,0.5,8.9,1.4V401.9z"/>
		<path class="st0" d="M767.8,401.9c0.4,1,0.8,2,1,3.1c0.2,0.7,0.2,1.5,0.3,2.3c0,0.2,0,0.3,0,0.5c0,1.5-0.2,2.9-0.6,4.2
			c-1.8,5.9-7.3,10.3-13.8,10.3c-6.5,0-12-4.3-13.8-10.2c-0.4-1.3-0.6-2.7-0.6-4.1c0-2.2,0.4-4.2,1.3-6.1h-52.1l-24.2,0h-0.7v0h-4.1
			c-2.7,2-5.9,3.1-9.5,3.1c-3.5,0-6.8-1.2-9.5-3.1h-34.9v0H586v-30.5c0-8.3-2.8-15-8.5-20.3c-5.7-5.3-12.7-7.9-21.2-7.9h-34.4h-13.4
			c-4,0-8.4-1.6-13-4.9c-4.4-2.9-7.7-6.2-9.8-10.1v44.7h36.2h21.7c2.9,0,5.7,1.1,8.5,3.3c2.8,2.2,4.2,4.7,4.2,7.3v18.4H469v34.6
			h71.6l0,0h303.8v-34.6H767.8z"/>
		<path class="st1" d="M675.1,360.2c0.6,0.7,0.5,1.8-0.2,2.4c-0.3,0.3-0.6,0.5-0.9,0.8c-2,1.8-4.1,3.7-6.2,5.9
			c-0.3,0.3-0.8,0.5-1.2,0.5c-0.4,0-0.9-0.2-1.2-0.5c-0.7-0.7-0.7-1.7,0-2.4c2.2-2.2,4.3-4.2,6.4-6c0.3-0.3,0.6-0.6,1-0.8
			C673.4,359.5,674.5,359.5,675.1,360.2z M658.5,374.2c-2.3,2.5-4.6,5.2-6.6,7.5c-0.6,0.7-0.5,1.8,0.2,2.4c0.3,0.3,0.7,0.4,1.1,0.4
			c0.5,0,0.9-0.2,1.3-0.6c2-2.3,4.3-4.9,6.5-7.4c0.6-0.7,0.6-1.7-0.1-2.4C660.1,373.5,659.1,373.6,658.5,374.2z"/>
		<path class="st0" d="M650.9,348.4c-22.4,0-40.6,18.2-40.6,40.6c0,4.5,0.7,8.9,2.1,12.9c3.7,11.1,12.2,20.1,22.9,24.5
			c4.8,2,10.1,3.1,15.6,3.1c17.9,0,33.1-11.6,38.5-27.6c1.4-4.1,2.1-8.4,2.1-12.9C691.5,366.5,673.3,348.4,650.9,348.4z M650.9,405
			c-3.5,0-6.8-1.2-9.5-3.1c-4-2.9-6.6-7.6-6.6-12.9c0-8.9,7.2-16.1,16.1-16.1c8.9,0,16.1,7.2,16.1,16.1c0,5.3-2.6,10-6.6,12.9
			C657.7,403.9,654.4,405,650.9,405z"/>
		<path class="st1" d="M759,424.2c-0.1,0-0.3,0.1-0.4,0.1c-0.7,0-1.4-0.5-1.6-1.2l-2.6-9.6c-0.2-0.9,0.3-1.8,1.2-2.1
			c0.9-0.2,1.8,0.3,2.1,1.2l2.6,9.6C760.5,423,759.9,424,759,424.2z M765.4,441.3l-2.6-9.6c-0.2-0.9-1.2-1.4-2.1-1.2
			c-0.9,0.2-1.4,1.2-1.2,2.1l2.6,9.6c0.2,0.7,0.9,1.2,1.6,1.2c0.1,0,0.3,0,0.4-0.1C765.1,443.1,765.6,442.2,765.4,441.3z
			 M775.8,479.7l-2.6-9.6c-0.2-0.9-1.2-1.4-2.1-1.2c-0.9,0.2-1.4,1.2-1.2,2.1l2.6,9.6c0.2,0.7,0.9,1.2,1.6,1.2c0.1,0,0.3,0,0.4-0.1
			C775.5,481.5,776,480.6,775.8,479.7z M770.6,460.5l-2.6-9.6c-0.2-0.9-1.2-1.4-2.1-1.2c-0.9,0.2-1.4,1.2-1.2,2.1l2.6,9.6
			c0.2,0.7,0.9,1.2,1.6,1.2c0.1,0,0.3,0,0.4-0.1C770.3,462.3,770.8,461.4,770.6,460.5z"/>
		<path class="st0" d="M794.5,401.9c-0.5-2.9-1.3-5.8-2.4-8.4v0c-6.7-16.3-23.7-27.2-42.5-24.8c-15,1.9-27,11.8-32.4,24.8
			c-1.1,2.7-2,5.5-2.5,8.4c-0.8,4.6-0.8,9.3,0,14.1c0.7,4.1,1.8,8.1,3.1,12c1,2.9,2.1,5.7,3.3,8.4v0c0.8,1.8,1.7,3.7,2.7,5.4
			c7.1,13.2,14.6,26.2,22,39.2c2.8,5,5.8,9.9,8.8,14.9c0.4-0.7,0.8-1.2,1.1-1.8c4.2-7.1,8.5-14.3,12.7-21.4
			c7-11.9,14.1-23.7,19.7-36.4v0c0,0,0,0,0,0c1.2-2.8,2.4-5.6,3.4-8.4c2-5.8,3.4-11.8,3.6-18C795.1,407.2,794.9,404.5,794.5,401.9
			C794.5,401.9,794.5,401.9,794.5,401.9z M768.4,412c-1.8,5.9-7.3,10.3-13.8,10.3c-6.5,0-12-4.3-13.8-10.2c-0.4-1.3-0.6-2.7-0.6-4.1
			c0-2.2,0.4-4.2,1.3-6.1c2.1-4.8,6.7-8.1,12.2-8.4c0.3,0,0.6,0,0.9,0c0.3,0,0.6,0,0.9,0c4.8,0.3,8.9,2.8,11.3,6.5
			c0.4,0.6,0.8,1.3,1.1,1.9c0.4,1,0.8,2,1,3.1c0.2,0.7,0.2,1.5,0.3,2.3c0,0.2,0,0.3,0,0.5C769,409.3,768.8,410.7,768.4,412z
			 M844.4,256.1v168.3h-29.5l-0.2-34.6v-100c0,0,0,0,0,0V289c0-8.1,3.1-14.7,9.2-19.9L844.4,256.1z"/>
		<path class="st0" d="M866.9,269.7c-6.5,5.6-9.8,12.3-9.8,20.2v29.5v4.7v112.5h29.7V324v-4.7v-63.2
			C880.3,260.5,873.7,265,866.9,269.7z"/>
		<path class="st1" d="M443.8,446.3c0.6,0.7,0.6,1.7-0.1,2.4c-0.3,0.3-0.7,0.5-1.2,0.5c-0.4,0-0.9-0.2-1.2-0.5l-0.5-0.5
			c-2.1-2.2-4.2-4.6-6.2-7.1c-0.6-0.7-0.5-1.8,0.3-2.4c0.7-0.6,1.8-0.5,2.4,0.3c1.9,2.4,3.9,4.7,6,6.9L443.8,446.3z M569.2,451.8
			c-2.9,1.7-5.8,3.2-8.7,4.7c-0.8,0.4-1.1,1.4-0.7,2.3c0.3,0.6,0.9,0.9,1.5,0.9c0.3,0,0.5-0.1,0.8-0.2c2.9-1.5,5.9-3.1,8.8-4.8
			c0.8-0.5,1.1-1.5,0.6-2.3S570,451.3,569.2,451.8z M442.9,281.1c0.8-0.5,0.9-1.6,0.4-2.3c-0.5-0.8-1.6-0.9-2.3-0.4
			c-2.8,1.9-5.4,4-8,6.3c-0.7,0.6-0.8,1.7-0.1,2.4c0.3,0.4,0.8,0.6,1.3,0.6c0.4,0,0.8-0.1,1.1-0.4C437.7,285,440.3,283,442.9,281.1z
			 M475.9,467.9c-3-1.1-6-2.5-8.9-4c-0.8-0.4-1.8-0.1-2.3,0.7c-0.4,0.8-0.1,1.8,0.7,2.3c3,1.6,6.1,3,9.3,4.1
			c0.2,0.1,0.4,0.1,0.6,0.1c0.7,0,1.3-0.4,1.6-1.1C477.2,469.2,476.7,468.3,475.9,467.9z M551.7,460.8c-1.6,0.7-3.2,1.4-4.8,2.1
			c-1.4,0.6-2.9,1.2-4.3,1.7c-0.9,0.3-1.3,1.3-1,2.2c0.3,0.7,0.9,1.1,1.6,1.1c0.2,0,0.4,0,0.6-0.1c1.5-0.6,2.9-1.2,4.4-1.8
			c1.6-0.7,3.2-1.4,4.8-2.1c0.8-0.4,1.2-1.4,0.8-2.2C553.6,460.8,552.6,460.5,551.7,460.8z M494.8,472.3c-3.3-0.3-6.5-0.8-9.6-1.6
			c-0.9-0.2-1.8,0.4-2,1.3c-0.2,0.9,0.4,1.8,1.3,2c3.3,0.7,6.6,1.3,10,1.6c0.1,0,0.1,0,0.2,0c0.9,0,1.6-0.6,1.7-1.5
			C496.4,473.2,495.7,472.4,494.8,472.3z M533.4,467.9c-3.2,1-6.4,1.8-9.5,2.5c-0.9,0.2-1.5,1.1-1.3,2c0.2,0.8,0.9,1.3,1.6,1.3
			c0.1,0,0.2,0,0.4,0c3.2-0.7,6.5-1.6,9.7-2.5c0.9-0.3,1.4-1.2,1.1-2.1C535.2,468.1,534.3,467.6,533.4,467.9z M514.2,472
			c-3.3,0.4-6.6,0.6-9.7,0.7c-0.9,0-1.7,0.8-1.6,1.7c0,0.9,0.8,1.6,1.7,1.6c0,0,0,0,0,0c3.3-0.1,6.7-0.3,10.1-0.7
			c0.9-0.1,1.6-0.9,1.5-1.9C516,472.5,515.2,471.9,514.2,472z M458.6,459c-2.6-1.8-5.2-3.8-7.7-5.9c-0.7-0.6-1.8-0.5-2.4,0.2
			c-0.6,0.7-0.5,1.8,0.2,2.4c2.6,2.2,5.3,4.3,8,6.2c0.3,0.2,0.6,0.3,0.9,0.3c0.5,0,1.1-0.3,1.4-0.7
			C459.6,460.5,459.4,459.5,458.6,459z M428.2,291.6c-0.7-0.6-1.7-0.6-2.4,0.1c-2.3,2.5-4.4,5.2-6.3,8c-0.5,0.8-0.3,1.8,0.4,2.3
			c0.3,0.2,0.6,0.3,1,0.3c0.5,0,1.1-0.3,1.4-0.7c1.8-2.6,3.9-5.2,6-7.6C429,293.3,428.9,292.3,428.2,291.6z M406.5,339.1
			c0.1,0,0.2,0,0.2,0c0.8,0,1.5-0.6,1.7-1.4c0.5-3.3,1.1-6.5,1.9-9.6c0.2-0.9-0.3-1.8-1.2-2c-0.9-0.2-1.8,0.3-2,1.2
			c-0.8,3.2-1.5,6.5-2,9.9C405,338.1,405.6,339,406.5,339.1z M411.1,319.8c0.2,0.1,0.4,0.1,0.6,0.1c0.7,0,1.3-0.4,1.6-1.1
			c1.2-3,2.5-6,4-8.9c0.4-0.8,0.1-1.8-0.7-2.3c-0.8-0.4-1.8-0.1-2.3,0.7c-1.6,3-3,6.1-4.2,9.2C409.8,318.5,410.2,319.5,411.1,319.8z
			 M449.1,275.5c0.3,0.6,0.9,0.9,1.5,0.9c0.3,0,0.5-0.1,0.8-0.2c1.4-0.8,2.9-1.5,4.4-2.2l-1.3-3.1c-0.1,0-1.9,0.7-4.7,2.2
			c-0.8,0.4-1.1,1.4-0.7,2.2C449,275.4,449,275.5,449.1,275.5z M405.9,358.9c0.9,0,1.6-0.8,1.6-1.7c-0.1-1.6-0.1-3.2-0.1-4.7
			c0-1.7,0-3.4,0.1-5c0-0.9-0.7-1.7-1.6-1.8c-0.9,0-1.7,0.7-1.8,1.6c-0.1,1.7-0.1,3.5-0.1,5.2c0,1.6,0,3.2,0.1,4.9
			C404.2,358.2,404.9,358.9,405.9,358.9C405.8,358.9,405.9,358.9,405.9,358.9z M409.8,376.7c-0.6-3.3-1.1-6.5-1.5-9.7
			c-0.1-0.9-0.9-1.6-1.9-1.5c-0.9,0.1-1.6,0.9-1.5,1.9c0.4,3.2,0.9,6.6,1.5,9.9c0.2,0.8,0.9,1.4,1.6,1.4c0.1,0,0.2,0,0.3,0
			C409.3,378.5,409.9,377.6,409.8,376.7z M414.5,395.8c-1-3.2-1.9-6.4-2.6-9.5c-0.2-0.9-1.1-1.4-2-1.2c-0.7,0.2-1.2,0.8-1.3,1.4
			c-0.3,0.4-0.4,0.9-0.2,1.4c0.5,1.6,1,3.3,1.5,4.9c0.1,0.3,0.3,0.5,0.5,0.7c0.3,1.1,0.6,2.2,1,3.3c0.2,0.7,0.9,1.2,1.6,1.2
			c0.2,0,0.3,0,0.5-0.1C414.3,397.6,414.8,396.7,414.5,395.8z M736,356.7c-0.6-0.7-1.6-0.8-2.4-0.2c-0.7,0.6-0.8,1.6-0.2,2.4
			c1.9,2.3,3.8,5,5.5,7.9c0.3,0.5,0.9,0.8,1.4,0.8c0.3,0,0.6-0.1,0.8-0.2c0.8-0.5,1.1-1.5,0.6-2.3C740,362,738,359.2,736,356.7z
			 M755.2,403c-0.8-3.6-1.6-6.8-2.4-9.7c-0.2-0.9-1.2-1.4-2.1-1.2c-0.9,0.2-1.4,1.2-1.2,2.1c0.8,2.9,1.6,6.1,2.4,9.6
			c0.2,0.8,0.9,1.3,1.6,1.3c0.1,0,0.3,0,0.4,0C754.9,404.8,755.4,403.9,755.2,403z M749.9,383.6c-1.1-3.4-2.3-6.5-3.6-9.4
			c-0.4-0.8-1.4-1.2-2.2-0.9c-0.8,0.4-1.2,1.4-0.9,2.2c1.2,2.8,2.4,5.9,3.5,9.2c0.2,0.7,0.9,1.1,1.6,1.1c0.2,0,0.4,0,0.5-0.1
			C749.7,385.4,750.2,384.5,749.9,383.6z M781,498.9l-2.6-9.6c-0.2-0.9-1.2-1.4-2.1-1.2c-0.9,0.2-1.4,1.2-1.2,2.1l2.6,9.6
			c0.2,0.7,0.9,1.2,1.6,1.2c0.1,0,0.3,0,0.4-0.1C780.7,500.7,781.2,499.8,781,498.9z M728.5,349.6c-2.9-2.1-5.9-3.7-9.2-4.9
			c-0.9-0.3-1.8,0.2-2.1,1c-0.3,0.9,0.2,1.8,1,2.1c2.9,1,5.7,2.5,8.3,4.4c0.3,0.2,0.6,0.3,1,0.3c0.5,0,1-0.2,1.4-0.7
			C729.4,351.2,729.2,350.2,728.5,349.6z M709,343C709,343,709,343,709,343c-3.3,0-6.8,0.5-10.3,1.6c-0.9,0.3-1.4,1.2-1.1,2.1
			c0.2,0.7,0.9,1.2,1.6,1.2c0.2,0,0.3,0,0.5-0.1c3.2-0.9,6.3-1.4,9.3-1.4c0.9,0,1.7-0.8,1.7-1.7C710.7,343.8,709.9,343,709,343z
			 M645.3,389.2c-2.5,2.7-4.7,5.1-6.7,7.2c-0.7,0.7-0.6,1.7,0,2.4c0.3,0.3,0.8,0.5,1.2,0.5c0.4,0,0.9-0.2,1.2-0.5
			c2.1-2.1,4.4-4.5,6.8-7.3c0.6-0.7,0.6-1.7-0.1-2.4C647,388.4,646,388.5,645.3,389.2z M616.9,416.7c-2.5,2.2-5,4.4-7.5,6.5
			c-0.7,0.6-0.8,1.7-0.2,2.4c0.3,0.4,0.8,0.6,1.3,0.6c0.4,0,0.8-0.1,1.1-0.4c2.5-2.1,5-4.3,7.6-6.5c0.7-0.6,0.8-1.7,0.1-2.4
			C618.7,416.2,617.6,416.1,616.9,416.7z M601.8,429.4c-2.6,2.1-5.3,4.1-7.8,6c-0.7,0.6-0.9,1.6-0.3,2.3c0.3,0.4,0.8,0.7,1.3,0.7
			c0.3,0,0.7-0.1,1-0.3c2.6-1.9,5.3-4,7.9-6.1c0.7-0.6,0.8-1.6,0.3-2.4C603.5,429,602.5,428.9,601.8,429.4z M631.5,403.3
			c-2.4,2.3-4.9,4.6-7.2,6.8c-0.7,0.6-0.7,1.7-0.1,2.4c0.3,0.4,0.8,0.5,1.2,0.5c0.4,0,0.8-0.1,1.1-0.4c2.4-2.2,4.8-4.5,7.3-6.8
			c0.7-0.6,0.7-1.7,0.1-2.4C633.2,402.7,632.2,402.6,631.5,403.3z M689.3,348.5c-2.8,1.5-5.7,3.3-8.6,5.3c-0.8,0.5-0.9,1.6-0.4,2.3
			c0.3,0.5,0.8,0.7,1.4,0.7c0.3,0,0.7-0.1,1-0.3c2.8-2,5.6-3.7,8.3-5.1c0.8-0.4,1.1-1.4,0.7-2.3
			C691.1,348.4,690.1,348.1,689.3,348.5z M585.9,441.2c-2.7,1.9-5.5,3.7-8.2,5.5c-0.8,0.5-1,1.5-0.5,2.3c0.3,0.5,0.9,0.8,1.4,0.8
			c0.3,0,0.6-0.1,0.9-0.3c2.8-1.8,5.6-3.6,8.3-5.5c0.8-0.5,1-1.6,0.4-2.3C587.7,440.9,586.7,440.7,585.9,441.2z"/>
	</g>
	<path class="st1" d="M520.8,246.2l-17,8.8l-5.9,28.9c-0.5,2.4-1.3,4.3-2.4,5.8l-3.3,1.7l-5.2-28.5l-22.7,9.2l-1.5,7.2l-1.6,7.6
		c-0.3,1.3-0.7,2.3-1.3,3.1l-1.7,0.9l-1.4-7.9l-1.2-6.7l0,0l-0.7-3.9l-2.8-2.8l0,0l-4.8-4.8l-5.6-5.7l1.7-0.9c1,0,2,0.2,3.2,0.7
		l7.1,3.1l6.7,2.9l20.5-13.3l-20.3-20.6l3.3-1.7c1.9,0,3.9,0.4,6.2,1.4l27.1,11.7l17-8.9c3.9-2,11.5-2,13.2,1.1c0,0,0,0.1,0.1,0.1
		c0,0,0.1,0.1,0.1,0.1C529.1,237.9,524.7,244.2,520.8,246.2z"/>
	<path class="st1" d="M646.4,307.3c0,8.2-6.6,14.8-14.8,14.8c-8.2,0-14.8-6.6-14.8-14.8s6.6-14.8,14.8-14.8
		C639.8,292.5,646.4,299.1,646.4,307.3z M668.9,292.5c-8.2,0-14.8,6.6-14.8,14.8s6.6,14.8,14.8,14.8c8.2,0,14.8-6.6,14.8-14.8
		S677.1,292.5,668.9,292.5z"/>
</g>
</svg>
