<svg width="584" height="384" viewBox="0 0 584 384" fill="none" xmlns="http://www.w3.org/2000/svg">
<path d="M4.10001 376.4H11.9V373.9H4.10001V369.7H12.9V367.2H1V383.5H13.3V380.9H4.10001V376.4Z" fill="#1A00E2"/>
<path d="M34.5002 367.2H31.2002L27.1002 372.9L23.0002 367.2H19.5002L25.3002 375.1L19.2002 383.5H22.7002L27.0002 377.2L31.5002 383.5H35.0002L28.8002 375L34.5002 367.2Z" fill="#1A00E2"/>
<path d="M52.0001 367.9C51.0001 367.4 49.7001 367.2 48.3001 367.2H41.6001V383.5H44.6001V378.8H48.3001C49.7001 378.8 51.0001 378.6 52.0001 378.1C53.0001 377.6 53.8001 377 54.4001 376.1C55.0001 375.2 55.2001 374.2 55.2001 373C55.2001 371.8 54.9001 370.8 54.4001 369.9C53.8001 369 53.0001 368.3 52.0001 367.9ZM51.1001 375.3C50.4001 375.9 49.4001 376.1 48.1001 376.1H44.6001V369.6H48.1001C49.4001 369.6 50.4001 369.9 51.1001 370.4C51.8001 371 52.1001 371.8 52.1001 372.8C52.1001 374 51.8001 374.8 51.1001 375.3Z" fill="#1A00E2"/>
<path d="M66 367.2H63V383.5H74.5V380.9H66V367.2Z" fill="#1A00E2"/>
<path d="M95.3002 369.3C94.5002 368.5 93.6002 368 92.5002 367.5C91.4002 367.1 90.3002 366.9 89.0002 366.9C87.7002 366.9 86.6002 367.1 85.5002 367.5C84.4002 367.9 83.5002 368.5 82.7002 369.3C81.9002 370.1 81.3002 370.9 80.9002 372C80.5002 373 80.2002 374.1 80.2002 375.3C80.2002 376.5 80.4002 377.6 80.9002 378.6C81.3002 379.6 81.9002 380.5 82.7002 381.3C83.5002 382.1 84.4002 382.6 85.5002 383.1C86.6002 383.5 87.7002 383.7 89.0002 383.7C90.3002 383.7 91.4002 383.5 92.5002 383.1C93.6002 382.7 94.5002 382.1 95.3002 381.4C96.1002 380.7 96.7002 379.8 97.1002 378.7C97.5002 377.7 97.8002 376.6 97.8002 375.3C97.8002 374.1 97.6002 373 97.1002 372C96.7002 370.9 96.0002 370.1 95.3002 369.3ZM94.3002 377.6C94.0002 378.3 93.6002 378.9 93.1002 379.4C92.6002 379.9 92.0002 380.3 91.3002 380.6C90.6002 380.9 89.8002 381 89.0002 381C88.2002 381 87.4002 380.9 86.7002 380.6C86.0002 380.3 85.4002 379.9 84.9002 379.4C84.4002 378.9 84.0002 378.3 83.7002 377.6C83.4002 376.9 83.3002 376.1 83.3002 375.3C83.3002 374.5 83.4002 373.7 83.7002 373C84.0002 372.3 84.4002 371.7 84.9002 371.2C85.4002 370.7 86.0002 370.3 86.7002 370C87.4002 369.7 88.1002 369.6 89.0002 369.6C89.8002 369.6 90.6002 369.7 91.3002 370C92.0002 370.3 92.6002 370.7 93.1002 371.2C93.6002 371.7 94.0002 372.3 94.3002 373C94.6002 373.7 94.7002 374.5 94.7002 375.3C94.7002 376.1 94.6002 376.9 94.3002 377.6Z" fill="#1A00E2"/>
<path d="M116.1 378C117.1 377.5 117.9 376.9 118.5 376C119.1 375.1 119.3 374.1 119.3 372.9C119.3 371.7 119 370.7 118.5 369.8C117.9 368.9 117.1 368.3 116.1 367.8C115.1 367.3 113.8 367.1 112.4 367.1H105.7V383.4H108.7V378.6H112.4C112.6 378.6 112.8 378.6 113 378.6L116.3 383.4H119.6L115.9 378.1C116 378.1 116.1 378 116.1 378ZM115.3 370.6C116 371.2 116.3 372 116.3 373C116.3 374 116 374.8 115.3 375.4C114.6 376 113.6 376.3 112.3 376.3H108.8V369.8H112.3C113.6 369.7 114.6 370 115.3 370.6Z" fill="#1A00E2"/>
<path d="M130.5 376.4H138.4V373.9H130.5V369.7H139.4V367.2H127.5V383.5H139.7V380.9H130.5V376.4Z" fill="#1A00E2"/>
<path d="M171.1 375.2C170.9 375.1 170.7 375 170.5 375C171.1 374.7 171.6 374.2 172 373.6C172.4 373 172.6 372.2 172.6 371.4C172.6 370.1 172.1 369.1 171.1 368.3C170.1 367.5 168.6 367.1 166.6 367.1H159V383.4H167.1C169.2 383.4 170.8 383 171.9 382.2C173 381.4 173.5 380.3 173.5 378.9C173.5 378 173.3 377.2 172.9 376.5C172.5 375.8 171.8 375.5 171.1 375.2ZM166.3 369.5C167.4 369.5 168.2 369.7 168.7 370.1C169.3 370.5 169.5 371 169.5 371.8C169.5 372.5 169.2 373.1 168.7 373.5C168.2 373.9 167.3 374.1 166.3 374.1H162V369.6H166.3V369.5ZM169.5 380.5C168.9 380.9 168 381.1 166.9 381.1H162V376.4H166.9C168 376.4 168.9 376.6 169.5 377C170.1 377.4 170.4 378 170.4 378.8C170.4 379.5 170.1 380.1 169.5 380.5Z" fill="#1A00E2"/>
<path d="M184.5 376.4H192.4V373.9H184.5V369.7H193.4V367.2H181.5V383.5H193.7V380.9H184.5V376.4Z" fill="#1A00E2"/>
<path d="M212.1 367.2L207.2 375.1L202.5 367.2H199.2L205.6 377.7V383.5H208.7V377.7L215 367.2H212.1Z" fill="#1A00E2"/>
<path d="M235 369.3C234.2 368.5 233.3 368 232.2 367.5C231.1 367.1 230 366.9 228.7 366.9C227.4 366.9 226.3 367.1 225.2 367.5C224.1 367.9 223.2 368.5 222.4 369.3C221.6 370.1 221 370.9 220.6 372C220.2 373 219.9 374.1 219.9 375.3C219.9 376.5 220.1 377.6 220.6 378.6C221 379.6 221.6 380.5 222.4 381.3C223.2 382.1 224.1 382.6 225.2 383.1C226.3 383.5 227.4 383.7 228.7 383.7C230 383.7 231.1 383.5 232.2 383.1C233.3 382.7 234.2 382.1 235 381.4C235.8 380.7 236.4 379.8 236.8 378.7C237.2 377.7 237.5 376.6 237.5 375.3C237.5 374.1 237.3 373 236.8 372C236.4 370.9 235.8 370.1 235 369.3ZM234 377.6C233.7 378.3 233.3 378.9 232.8 379.4C232.3 379.9 231.7 380.3 231 380.6C230.3 380.9 229.5 381 228.7 381C227.9 381 227.1 380.9 226.4 380.6C225.7 380.3 225.1 379.9 224.6 379.4C224.1 378.9 223.7 378.3 223.4 377.6C223.1 376.9 223 376.1 223 375.3C223 374.5 223.1 373.7 223.4 373C223.7 372.3 224.1 371.7 224.6 371.2C225.1 370.7 225.7 370.3 226.4 370C227.1 369.7 227.8 369.6 228.7 369.6C229.5 369.6 230.3 369.7 231 370C231.7 370.3 232.3 370.7 232.8 371.2C233.3 371.7 233.7 372.3 234 373C234.3 373.7 234.4 374.5 234.4 375.3C234.4 376.1 234.3 376.9 234 377.6Z" fill="#1A00E2"/>
<path d="M256.9 378.2L247.9 367.2H245.4V383.5H248.4V372.4L257.4 383.5H259.9V367.2H256.9V378.2Z" fill="#1A00E2"/>
<path d="M280.8 368.2C279.5 367.5 277.9 367.2 276.1 367.2H269V383.5H276.1C277.9 383.5 279.4 383.2 280.8 382.5C282.1 381.8 283.2 380.9 283.9 379.6C284.6 378.4 285 377 285 375.3C285 373.7 284.6 372.2 283.9 371C283.2 369.8 282.2 368.9 280.8 368.2ZM281.3 378.2C280.8 379 280.1 379.7 279.2 380.2C278.3 380.7 277.2 380.9 276 380.9H272V369.7H276C277.2 369.7 278.3 369.9 279.2 370.4C280.1 370.9 280.8 371.5 281.3 372.3C281.8 373.1 282 374.1 282 375.2C282 376.4 281.8 377.4 281.3 378.2Z" fill="#1A00E2"/>
<path d="M302.1 369.7H307.5V383.5H310.5V369.7H315.9V367.2H302.1V369.7Z" fill="#1A00E2"/>
<path d="M334.4 373.9H326V367.2H323V383.5H326V376.5H334.4V383.5H337.4V367.2H334.4V373.9Z" fill="#1A00E2"/>
<path d="M349.6 376.4H357.5V373.9H349.6V369.7H358.5V367.2H346.6V383.5H358.8V380.9H349.6V376.4Z" fill="#1A00E2"/>
<path d="M390.2 375.2C390 375.1 389.8 375 389.6 375C390.2 374.7 390.7 374.2 391.1 373.6C391.5 373 391.7 372.2 391.7 371.4C391.7 370.1 391.2 369.1 390.2 368.3C389.2 367.5 387.7 367.1 385.7 367.1H378.1V383.4H386.2C388.3 383.4 389.9 383 391 382.2C392.1 381.4 392.6 380.3 392.6 378.9C392.6 378 392.4 377.2 392 376.5C391.5 376 390.9 375.5 390.2 375.2ZM385.4 369.5C386.5 369.5 387.3 369.7 387.8 370.1C388.4 370.5 388.6 371 388.6 371.8C388.6 372.5 388.3 373.1 387.8 373.5C387.3 373.9 386.4 374.1 385.4 374.1H381.1V369.6H385.4V369.5ZM388.6 380.5C388 380.9 387.1 381.1 386 381.1H381.1V376.4H386C387.1 376.4 388 376.6 388.6 377C389.2 377.4 389.5 378 389.5 378.8C389.5 379.5 389.2 380.1 388.6 380.5Z" fill="#1A00E2"/>
<path d="M414.5 369.3C413.7 368.5 412.8 368 411.7 367.5C410.6 367.1 409.5 366.9 408.2 366.9C406.9 366.9 405.8 367.1 404.7 367.5C403.6 367.9 402.7 368.5 401.9 369.3C401.1 370.1 400.5 370.9 400.1 372C399.7 373 399.4 374.1 399.4 375.3C399.4 376.5 399.6 377.6 400.1 378.6C400.5 379.6 401.1 380.5 401.9 381.3C402.7 382.1 403.6 382.6 404.7 383.1C405.8 383.5 406.9 383.7 408.2 383.7C409.5 383.7 410.6 383.5 411.7 383.1C412.8 382.7 413.7 382.1 414.5 381.4C415.3 380.7 415.9 379.8 416.3 378.7C416.7 377.7 417 376.6 417 375.3C417 374.1 416.8 373 416.3 372C415.9 370.9 415.3 370.1 414.5 369.3ZM413.5 377.6C413.2 378.3 412.8 378.9 412.3 379.4C411.8 379.9 411.2 380.3 410.5 380.6C409.8 380.9 409 381 408.2 381C407.4 381 406.6 380.9 405.9 380.6C405.2 380.3 404.6 379.9 404.1 379.4C403.6 378.9 403.2 378.3 402.9 377.6C402.6 376.9 402.5 376.1 402.5 375.3C402.5 374.5 402.6 373.7 402.9 373C403.2 372.3 403.6 371.7 404.1 371.2C404.6 370.7 405.2 370.3 405.9 370C406.6 369.7 407.3 369.6 408.2 369.6C409 369.6 409.8 369.7 410.5 370C411.2 370.3 411.8 370.7 412.3 371.2C412.8 371.7 413.2 372.3 413.5 373C413.8 373.7 413.9 374.5 413.9 375.3C413.9 376.1 413.8 376.9 413.5 377.6Z" fill="#1A00E2"/>
<path d="M436.1 376.2C436.1 377.9 435.7 379.1 435 379.9C434.3 380.7 433.3 381 432 381C430.7 381 429.7 380.6 428.9 379.9C428.2 379.1 427.8 377.9 427.8 376.2V367.1H424.8V376.3C424.8 378.7 425.4 380.5 426.7 381.7C428 383 429.7 383.6 432 383.6C434.2 383.6 436 383 437.2 381.7C438.5 380.4 439.1 378.6 439.1 376.3V367.1H436.1V376.2Z" fill="#1A00E2"/>
<path d="M459.5 378.2L450.5 367.2H448V383.5H451V372.4L460 383.5H462.5V367.2H459.5V378.2Z" fill="#1A00E2"/>
<path d="M483.4 368.2C482.1 367.5 480.5 367.2 478.7 367.2H471.6V383.5H478.7C480.5 383.5 482 383.2 483.4 382.5C484.7 381.8 485.8 380.9 486.5 379.6C487.2 378.4 487.6 377 487.6 375.3C487.6 373.7 487.2 372.2 486.5 371C485.8 369.8 484.8 368.9 483.4 368.2ZM483.9 378.2C483.4 379 482.7 379.7 481.8 380.2C480.9 380.7 479.8 380.9 478.6 380.9H474.6V369.7H478.6C479.8 369.7 480.9 369.9 481.8 370.4C482.7 370.9 483.4 371.5 483.9 372.3C484.4 373.1 484.6 374.1 484.6 375.2C484.6 376.4 484.4 377.4 483.9 378.2Z" fill="#1A00E2"/>
<path d="M500.4 367.2L493.1 383.5H496.2L497.8 379.7H506L507.6 383.5H510.8L503.4 367.2H500.4ZM498.8 377.3L501.9 370.2L505 377.3H498.8Z" fill="#1A00E2"/>
<path d="M528 378C529 377.5 529.8 376.9 530.4 376C531 375.1 531.2 374.1 531.2 372.9C531.2 371.7 530.9 370.7 530.4 369.8C529.8 368.9 529 368.3 528 367.8C527 367.3 525.7 367.1 524.3 367.1H517.6V383.4H520.6V378.6H524.3C524.5 378.6 524.7 378.6 524.9 378.6L528.2 383.4H531.5L527.8 378.1C527.8 378.1 527.9 378 528 378ZM527.2 370.6C527.9 371.2 528.2 372 528.2 373C528.2 374 527.9 374.8 527.2 375.4C526.5 376 525.5 376.3 524.2 376.3H520.7V369.8H524.2C525.5 369.7 526.5 370 527.2 370.6Z" fill="#1A00E2"/>
<path d="M542.4 367.2H539.4V383.5H542.4V367.2Z" fill="#1A00E2"/>
<path d="M554.6 376.4H562.4V373.9H554.6V369.7H563.4V367.2H551.5V383.5H563.8V380.9H554.6V376.4Z" fill="#1A00E2"/>
<path d="M583 376.7C582.7 376.1 582.2 375.7 581.6 375.4C581 375.1 580.4 374.8 579.7 374.6C579 374.4 578.3 374.2 577.6 374.1C576.9 373.9 576.3 373.8 575.7 373.6C575.1 373.4 574.7 373.2 574.3 372.9C574 372.6 573.8 372.2 573.8 371.7C573.8 371.3 573.9 370.9 574.2 370.6C574.4 370.3 574.8 370 575.3 369.8C575.8 369.6 576.5 369.5 577.3 369.5C578 369.5 578.8 369.6 579.5 369.8C580.3 370 581 370.3 581.8 370.8L582.8 368.4C582.1 367.9 581.2 367.6 580.3 367.3C579.3 367.1 578.4 366.9 577.4 366.9C575.9 366.9 574.7 367.1 573.7 367.6C572.7 368 572 368.6 571.5 369.4C571 370.1 570.8 370.9 570.8 371.8C570.8 372.7 571 373.4 571.3 373.9C571.7 374.5 572.1 374.9 572.7 375.2C573.3 375.5 573.9 375.8 574.6 376C575.3 376.2 576 376.4 576.7 376.5C577.4 376.7 578 376.8 578.6 377C579.2 377.2 579.6 377.4 580 377.7C580.4 378 580.5 378.4 580.5 378.9C580.5 379.3 580.4 379.7 580.1 380C579.9 380.3 579.5 380.6 578.9 380.8C578.4 381 577.7 381.1 576.8 381.1C575.8 381.1 574.8 380.9 573.8 380.6C572.8 380.3 572 379.8 571.4 379.3L570.4 381.7C571.1 382.3 572 382.7 573.2 383.1C574.4 383.5 575.6 383.6 576.9 383.6C578.4 383.6 579.6 383.4 580.6 382.9C581.6 382.5 582.3 381.9 582.8 381.1C583.3 380.4 583.5 379.6 583.5 378.7C583.5 378 583.3 377.3 583 376.7Z" fill="#1A00E2"/>
<path d="M0.700195 339.5L27.4002 270.8H40.2002L66.9002 339.5V341.2H50.9002L46.4002 328.5H21.2002L16.7002 341.2H0.800171V339.5H0.700195ZM42.1002 315.4L33.7002 292.7L25.4002 315.4H42.1002Z" fill="#E06329"/>
<path d="M73.7002 270.8H88.1002V341.2H73.7002V270.8Z" fill="#E06329"/>
<path d="M108.9 270.8L126.1 285.5V295.4H121.5C117 295.4 113.4 299 113.4 303.5V331.2V333.7C113.4 334.3 113.5 334.9 113.6 335.5V335.6C113.7 335.8 113.7 336.1 113.8 336.3C113.9 336.7 114.2 337.3 114.5 337.8C114.6 337.9 114.6 338 114.7 338.2C115.2 338.9 115.8 339.6 116.6 340.1C117.2 340.5 117.8 340.9 118.4 341.1H97V270.7H108.9V270.8ZM127.4 286.5V295.4H136.4V286.8L132.1 290.5L127.4 286.5ZM155 270.8L137.5 285.8V295.4H142C146.5 295.4 150.1 299.1 150.1 303.5V312.4V333.6C150.1 334.2 150 334.8 149.9 335.4V335.5C149.8 335.7 149.8 336 149.7 336.2C149.5 336.7 149.2 337.4 148.8 338.1C148.3 338.8 147.7 339.5 146.9 340C146.3 340.4 145.7 340.8 145.1 341H166.6V270.6H155V270.8Z" fill="#E06329"/>
<path d="M181.4 336.199C177.8 332.199 176.1 326.399 176.1 318.799V287.899H190.5V317.099C190.5 320.899 191.4 323.899 193.1 325.899C194.8 327.899 197.3 328.999 200.5 328.999C204.3 328.999 207.3 327.899 209.5 325.699C211.7 323.499 212.9 320.499 212.9 316.799V287.899H227.3V341.199H213.7L213.3 334.999C211.2 337.299 208.8 339.099 205.9 340.399C203 341.599 199.9 342.299 196.5 342.299C190 342.199 185 340.199 181.4 336.199Z" fill="#E06329"/>
<path d="M248.9 338.6C244.8 336.2 241.7 332.8 239.5 328.6C237.3 324.4 236.2 319.7 236.2 314.5C236.2 309.2 237.3 304.4 239.6 300.2C241.9 296 245.1 292.7 249.1 290.3C253.2 287.9 257.7 286.7 262.8 286.7C266.2 286.7 269.3 287.3 272.3 288.4C275.3 289.5 277.9 291.1 280.2 293.2L280.7 287.9H293.2V357.5H278.8V337C274.2 340.6 268.8 342.3 262.7 342.3C257.6 342.3 253 341.1 248.9 338.6ZM254.7 324.8C257.3 327.5 260.7 328.8 264.8 328.8C269 328.8 272.4 327.5 275 324.8C277.6 322.1 279 318.7 279 314.5C279 310.3 277.7 306.9 275 304.2C272.3 301.5 268.9 300.2 264.8 300.2C260.7 300.2 257.3 301.5 254.7 304.2C252 306.9 250.7 310.3 250.7 314.5C250.7 318.7 252 322.1 254.7 324.8Z" fill="#E06329"/>
<path d="M313.3 338.7C309.2 336.3 306 333 303.8 328.7C301.6 324.5 300.4 319.7 300.4 314.5C300.4 309.1 301.6 304.3 303.9 300.1C306.2 295.9 309.4 292.6 313.5 290.2C317.6 287.9 322.2 286.7 327.3 286.7C334 286.7 339.8 288.8 344.6 293.1L345.1 287.8H357.6V341.1H345.1L344.6 335.8C342.2 337.9 339.6 339.5 336.6 340.6C333.6 341.7 330.5 342.3 327.2 342.3C322.1 342.3 317.4 341.1 313.3 338.7ZM319 324.8C321.7 327.5 325.1 328.8 329.2 328.8C333.3 328.8 336.7 327.5 339.3 324.8C342 322.1 343.3 318.7 343.3 314.5C343.3 310.3 342 306.9 339.3 304.2C336.6 301.5 333.3 300.2 329.2 300.2C325 300.2 321.6 301.5 319 304.2C316.3 306.9 315 310.3 315 314.5C315 318.7 316.3 322.1 319 324.8Z" fill="#E06329"/>
<path d="M378.7 338.6C374.6 336.2 371.5 332.8 369.3 328.6C367.1 324.4 366 319.7 366 314.5C366 309.2 367.1 304.4 369.4 300.2C371.7 296 374.8 292.7 378.9 290.3C382.9 287.9 387.5 286.7 392.6 286.7C398.7 286.7 404.1 288.5 408.7 292V270.7H423.1V341.1H410.6L410.1 335.8C407.8 337.9 405.1 339.5 402.1 340.6C399.1 341.7 395.9 342.3 392.6 342.3C387.4 342.3 382.8 341.1 378.7 338.6ZM384.5 324.8C387.1 327.5 390.5 328.8 394.6 328.8C398.8 328.8 402.2 327.5 404.8 324.8C407.4 322.1 408.8 318.7 408.8 314.5C408.8 310.3 407.5 306.9 404.8 304.2C402.1 301.5 398.7 300.2 394.6 300.2C390.5 300.2 387.1 301.5 384.5 304.2C381.8 306.9 380.5 310.3 380.5 314.5C380.5 318.7 381.8 322.1 384.5 324.8Z" fill="#E06329"/>
<path d="M483.2 289.1L480.6 279.5C480.4 278.6 479.4 278.1 478.5 278.3C477.6 278.5 477.1 279.5 477.3 280.4L479.9 290C480.1 290.7 480.8 291.2 481.5 291.2C481.6 291.2 481.8 291.2 481.9 291.1C482.9 290.9 483.4 290 483.2 289.1Z" fill="#E06329"/>
<path d="M444.4 338.7C440.3 336.3 437.1 333 434.9 328.7C432.7 324.5 431.5 319.7 431.5 314.5C431.5 309.1 432.7 304.3 435 300.1C437.3 295.9 440.5 292.6 444.6 290.2C448.7 287.9 453.3 286.7 458.4 286.7C465.1 286.7 470.9 288.8 475.7 293.1L476.2 287.8H488.7V341.1H476.2L475.7 335.8C473.4 337.9 470.7 339.5 467.8 340.6C464.8 341.7 461.7 342.3 458.4 342.3C453.1 342.3 448.5 341.1 444.4 338.7ZM450.1 324.8C452.7 327.5 456.2 328.8 460.3 328.8C464.4 328.8 467.8 327.5 470.4 324.8C473 322.1 474.4 318.7 474.4 314.5C474.4 310.3 473.1 306.9 470.4 304.2C467.7 301.5 464.4 300.2 460.3 300.2C456.1 300.2 452.7 301.5 450.1 304.2C447.4 306.9 446.1 310.3 446.1 314.5C446.1 318.7 447.4 322.1 450.1 324.8Z" fill="#E06329"/>
<path d="M497 287.9H510.6L511 294.1C512.9 291.8 515.3 290 518.1 288.7C520.9 287.5 524 286.8 527.5 286.8C531.4 286.8 534.7 287.6 537.6 289.1C540.4 290.6 542.6 292.9 544.2 295.8C549.2 289.8 555.6 286.7 563.4 286.7C570 286.7 575.1 288.7 578.6 292.7C582.1 296.7 583.8 302.5 583.8 310.1V341H569.4V311.6C569.4 307.8 568.6 305 566.9 302.9C565.2 300.9 562.7 299.9 559.5 299.9C555.9 299.9 553 301 550.8 303.1C548.7 305.2 547.6 308 547.6 311.6V341H533.2V311.6C533.2 307.8 532.4 305 530.7 302.9C529 300.9 526.5 299.9 523.3 299.9C519.7 299.9 516.8 301 514.6 303.1C512.5 305.2 511.4 308 511.4 311.6V341H497V287.9Z" fill="#E06329"/>
<path d="M145.1 341.8V342.6C145.1 343.9 144 345 142.7 345C142.1 345 141.6 344.8 141.2 344.5C140.6 344.1 140.3 343.4 140.3 342.6V342.3H142.1C143.1 342.3 144.1 342.1 145.1 341.8ZM121.6 342.3C120.6 342.3 119.6 342.1 118.7 341.8V342.6C118.7 343.9 119.8 345 121.1 345C122.4 345 123.5 343.9 123.5 342.6V342.3H121.6ZM133.6 280.3H130.1C129.4 280.3 128.9 280.8 128.9 281.5C128.9 282.1 129.4 282.7 130.1 282.7H133.6C134.3 282.7 134.8 282.2 134.8 281.5C134.8 280.8 134.2 280.3 133.6 280.3ZM128.4 281.5C127.1 282 126.1 283.3 126.1 284.8V285.5L127.3 286.5V284.8C127.3 283.8 127.9 283 128.7 282.6C128.6 282.3 128.4 281.9 128.4 281.5ZM135.3 281.4C135.3 281.9 135.1 282.3 134.9 282.6C135.7 283 136.3 283.8 136.3 284.8V286.9L137.5 285.8V284.8C137.6 283.2 136.6 281.9 135.3 281.4Z" fill="#E06329"/>
<path d="M128.6 201.999C129.1 202.799 128.9 203.799 128.1 204.299C127.8 204.499 127.5 204.599 127.2 204.599C126.7 204.599 126.1 204.299 125.8 203.899C124 201.199 122.2 198.299 120.5 195.399C120 194.599 120.3 193.599 121.1 193.099C121.9 192.599 122.9 192.899 123.4 193.699C125 196.499 126.8 199.299 128.6 201.999ZM118.4 184.199C117 181.299 115.8 178.699 114.8 176.099C114.5 175.199 113.5 174.799 112.6 175.199C111.7 175.499 111.3 176.499 111.7 177.399C112.8 180.099 114 182.799 115.4 185.699L115.8 186.499C116.1 187.099 116.7 187.399 117.3 187.399C117.5 187.399 117.8 187.299 118 187.199C118.8 186.799 119.2 185.799 118.8 184.999L118.4 184.199Z" fill="#204E27"/>
<path d="M120.4 117.7L110.3 118.8L103.7 119.5C95.2002 120.5 88.5002 123.2 83.5002 127.6C69.8002 140.1 62.1002 155.2 60.1002 172.8H2.2002V207.4H10.0002H98.7002H153.9V110L154 109.6V99.1997C153.9 99.0997 148.2 113.3 120.4 117.7ZM124.4 172.9H98.6002H89.8002C89.6002 171.7 89.5002 170.6 89.5002 169.5C89.5002 162.8 92.1002 156.8 97.3002 151.6C102.5 146.4 108.5 143.8 115.5 143.8C118.2 143.8 121.2 144.3 124.4 145.2V172.9Z" fill="#2050D6"/>
<path d="M464.8 172.9C465.2 173.9 465.6 174.9 465.8 176C466 176.7 466 177.5 466.1 178.3C466.1 178.5 466.1 178.6 466.1 178.8C466.1 180.3 465.9 181.7 465.5 183C463.7 188.9 458.2 193.3 451.7 193.3C445.2 193.3 439.7 189 437.9 183.1C437.5 181.8 437.3 180.4 437.3 179C437.3 176.8 437.7 174.8 438.6 172.9H386.5H362.3H361.6H357.5C354.8 174.9 351.6 176 348 176C344.5 176 341.2 174.8 338.5 172.9H303.6H283V142.4C283 134.1 280.2 127.4 274.5 122.1C268.8 116.8 261.8 114.2 253.3 114.2H218.9H205.5C201.5 114.2 197.1 112.6 192.5 109.3C188.1 106.4 184.8 103.1 182.7 99.1997V143.9H218.9H240.6C243.5 143.9 246.3 145 249.1 147.2C251.9 149.4 253.3 151.9 253.3 154.5V172.9H166V207.5H237.6H541.4V172.9H464.8Z" fill="#2050D6"/>
<path d="M372.1 131.199C372.7 131.899 372.6 132.999 371.9 133.599C371.6 133.899 371.3 134.099 371 134.399C369 136.199 366.9 138.099 364.8 140.299C364.5 140.599 364 140.799 363.6 140.799C363.2 140.799 362.7 140.599 362.4 140.299C361.7 139.599 361.7 138.599 362.4 137.899C364.6 135.699 366.7 133.699 368.8 131.899C369.1 131.599 369.4 131.299 369.8 131.099C370.4 130.499 371.5 130.499 372.1 131.199ZM355.5 145.199C353.2 147.699 350.9 150.399 348.9 152.699C348.3 153.399 348.4 154.499 349.1 155.099C349.4 155.399 349.8 155.499 350.2 155.499C350.7 155.499 351.1 155.299 351.5 154.899C353.5 152.599 355.8 149.999 358 147.499C358.6 146.799 358.6 145.799 357.9 145.099C357.1 144.499 356.1 144.599 355.5 145.199Z" fill="#204E27"/>
<path d="M347.9 119.399C325.5 119.399 307.3 137.599 307.3 159.999C307.3 164.499 308 168.899 309.4 172.899C313.1 183.999 321.6 192.999 332.3 197.399C337.1 199.399 342.4 200.499 347.9 200.499C365.8 200.499 381 188.899 386.4 172.899C387.8 168.799 388.5 164.499 388.5 159.999C388.5 137.499 370.3 119.399 347.9 119.399ZM347.9 175.999C344.4 175.999 341.1 174.799 338.4 172.899C334.4 169.999 331.8 165.299 331.8 159.999C331.8 151.099 339 143.899 347.9 143.899C356.8 143.899 364 151.099 364 159.999C364 165.299 361.4 169.999 357.4 172.899C354.7 174.899 351.4 175.999 347.9 175.999Z" fill="#2050D6"/>
<path d="M456 195.2C455.9 195.2 455.7 195.3 455.6 195.3C454.9 195.3 454.2 194.8 454 194.1L451.4 184.5C451.2 183.6 451.7 182.7 452.6 182.4C453.5 182.2 454.4 182.7 454.7 183.6L457.3 193.2C457.5 194 456.9 195 456 195.2ZM462.4 212.3L459.8 202.7C459.6 201.8 458.6 201.3 457.7 201.5C456.8 201.7 456.3 202.7 456.5 203.6L459.1 213.2C459.3 213.9 460 214.4 460.7 214.4C460.8 214.4 461 214.4 461.1 214.3C462.1 214.1 462.6 213.2 462.4 212.3ZM472.8 250.7L470.2 241.1C470 240.2 469 239.7 468.1 239.9C467.2 240.1 466.7 241.1 466.9 242L469.5 251.6C469.7 252.3 470.4 252.8 471.1 252.8C471.2 252.8 471.4 252.8 471.5 252.7C472.5 252.5 473 251.6 472.8 250.7ZM467.6 231.5L465 221.9C464.8 221 463.8 220.5 462.9 220.7C462 220.9 461.5 221.9 461.7 222.8L464.3 232.4C464.5 233.1 465.2 233.6 465.9 233.6C466 233.6 466.2 233.6 466.3 233.5C467.3 233.3 467.8 232.4 467.6 231.5Z" fill="#204E27"/>
<path d="M491.5 172.9C491 170 490.2 167.1 489.1 164.5C482.4 148.2 465.4 137.3 446.6 139.7C431.6 141.6 419.6 151.5 414.2 164.5C413.1 167.2 412.2 170 411.7 172.9C410.9 177.5 410.9 182.2 411.7 187C412.4 191.1 413.5 195.1 414.8 199C415.8 201.9 416.9 204.7 418.1 207.4C418.9 209.2 419.8 211.1 420.8 212.8C427.9 226 435.4 239 442.8 252C445.6 257 448.6 261.9 451.6 266.9C452 266.2 452.4 265.7 452.7 265.1C456.9 258 461.2 250.8 465.4 243.7C472.4 231.8 479.5 220 485.1 207.3C486.3 204.5 487.5 201.7 488.5 198.9C490.5 193.1 491.9 187.1 492.1 180.9C492.1 178.2 491.9 175.5 491.5 172.9ZM465.4 183C463.6 188.9 458.1 193.3 451.6 193.3C445.1 193.3 439.6 189 437.8 183.1C437.4 181.8 437.2 180.4 437.2 179C437.2 176.8 437.6 174.8 438.5 172.9C440.6 168.1 445.2 164.8 450.7 164.5C451 164.5 451.3 164.5 451.6 164.5C451.9 164.5 452.2 164.5 452.5 164.5C457.3 164.8 461.4 167.3 463.8 171C464.2 171.6 464.6 172.3 464.9 172.9C465.3 173.9 465.7 174.9 465.9 176C466.1 176.7 466.1 177.5 466.2 178.3C466.2 178.5 466.2 178.6 466.2 178.8C466 180.3 465.8 181.7 465.4 183ZM541.4 27.0996V195.4H511.9L511.7 160.8V60.7996V59.9996C511.7 51.8996 514.8 45.2996 520.9 40.0996L541.4 27.0996Z" fill="#2050D6"/>
<path d="M563.9 40.6996C557.4 46.2996 554.1 52.9996 554.1 60.8996V90.3996V95.0996V207.6H583.8V94.9996V90.2996V27.0996C577.3 31.4996 570.7 35.9996 563.9 40.6996Z" fill="#2050D6"/>
<path d="M140.8 217.299C141.4 217.999 141.4 218.999 140.7 219.699C140.4 219.999 140 220.199 139.5 220.199C139.1 220.199 138.6 219.999 138.3 219.699L137.8 219.199C135.7 216.999 133.6 214.599 131.6 212.099C131 211.399 131.1 210.299 131.9 209.699C132.6 209.099 133.7 209.199 134.3 209.999C136.2 212.399 138.2 214.699 140.3 216.899L140.8 217.299ZM266.2 222.799C263.3 224.499 260.4 225.999 257.5 227.499C256.7 227.899 256.4 228.899 256.8 229.799C257.1 230.399 257.7 230.699 258.3 230.699C258.6 230.699 258.8 230.599 259.1 230.499C262 228.999 265 227.399 267.9 225.699C268.7 225.199 269 224.199 268.5 223.399C268 222.599 267 222.299 266.2 222.799ZM139.9 52.0994C140.7 51.5994 140.8 50.4994 140.3 49.7994C139.8 48.9994 138.7 48.8994 138 49.3994C135.2 51.2994 132.6 53.3994 130 55.6994C129.3 56.2994 129.2 57.3994 129.9 58.0994C130.2 58.4994 130.7 58.6994 131.2 58.6994C131.6 58.6994 132 58.5994 132.3 58.2994C134.7 55.9994 137.3 53.9994 139.9 52.0994ZM172.9 238.899C169.9 237.799 166.9 236.399 164 234.899C163.2 234.499 162.2 234.799 161.7 235.599C161.3 236.399 161.6 237.399 162.4 237.899C165.4 239.499 168.5 240.899 171.7 241.999C171.9 242.099 172.1 242.099 172.3 242.099C173 242.099 173.6 241.699 173.9 240.999C174.2 240.199 173.7 239.299 172.9 238.899ZM248.7 231.799C247.1 232.499 245.5 233.199 243.9 233.899C242.5 234.499 241 235.099 239.6 235.599C238.7 235.899 238.3 236.899 238.6 237.799C238.9 238.499 239.5 238.899 240.2 238.899C240.4 238.899 240.6 238.899 240.8 238.799C242.3 238.199 243.7 237.599 245.2 236.999C246.8 236.299 248.4 235.599 250 234.899C250.8 234.499 251.2 233.499 250.8 232.699C250.6 231.799 249.6 231.499 248.7 231.799ZM191.8 243.299C188.5 242.999 185.3 242.499 182.2 241.699C181.3 241.499 180.4 242.099 180.2 242.999C180 243.899 180.6 244.799 181.5 244.999C184.8 245.699 188.1 246.299 191.5 246.599C191.6 246.599 191.6 246.599 191.7 246.599C192.6 246.599 193.3 245.999 193.4 245.099C193.4 244.199 192.7 243.399 191.8 243.299ZM230.4 238.899C227.2 239.899 224 240.699 220.9 241.399C220 241.599 219.4 242.499 219.6 243.399C219.8 244.199 220.5 244.699 221.2 244.699C221.3 244.699 221.4 244.699 221.6 244.699C224.8 243.999 228.1 243.099 231.3 242.199C232.2 241.899 232.7 240.999 232.4 240.099C232.2 239.099 231.3 238.599 230.4 238.899ZM211.2 242.999C207.9 243.399 204.6 243.599 201.5 243.699C200.6 243.699 199.8 244.499 199.9 245.399C199.9 246.299 200.7 246.999 201.6 246.999C204.9 246.899 208.3 246.699 211.7 246.299C212.6 246.199 213.3 245.399 213.2 244.399C213 243.499 212.2 242.899 211.2 242.999ZM155.6 229.999C153 228.199 150.4 226.199 147.9 224.099C147.2 223.499 146.1 223.599 145.5 224.299C144.9 224.999 145 226.099 145.7 226.699C148.3 228.899 151 230.999 153.7 232.899C154 233.099 154.3 233.199 154.6 233.199C155.1 233.199 155.7 232.899 156 232.499C156.6 231.499 156.4 230.499 155.6 229.999ZM125.2 62.5994C124.5 61.9994 123.5 61.9994 122.8 62.6994C120.5 65.1994 118.4 67.8994 116.5 70.6994C116 71.4994 116.2 72.4994 116.9 72.9994C117.2 73.1994 117.5 73.2994 117.9 73.2994C118.4 73.2994 119 72.9994 119.3 72.5994C121.1 69.9994 123.2 67.3994 125.3 64.9994C126 64.2994 125.9 63.2994 125.2 62.5994ZM103.5 110.099C103.6 110.099 103.7 110.099 103.7 110.099C104.5 110.099 105.2 109.499 105.4 108.699C105.9 105.399 106.5 102.199 107.3 99.0994C107.5 98.1994 107 97.2994 106.1 97.0994C105.2 96.8994 104.3 97.3994 104.1 98.2994C103.3 101.499 102.6 104.799 102.1 108.199C102 109.099 102.6 109.999 103.5 110.099ZM108.1 90.7994C108.3 90.8994 108.5 90.8994 108.7 90.8994C109.4 90.8994 110 90.4994 110.3 89.7994C111.5 86.7994 112.8 83.7994 114.3 80.8994C114.7 80.0994 114.4 79.0994 113.6 78.5994C112.8 78.1994 111.8 78.4994 111.3 79.2994C109.7 82.2994 108.3 85.3994 107.1 88.4994C106.8 89.4994 107.2 90.4994 108.1 90.7994ZM146.1 46.4994C146.4 47.0994 147 47.3994 147.6 47.3994C147.9 47.3994 148.1 47.2994 148.4 47.1994C149.8 46.3994 151.3 45.6994 152.8 44.9994L151.5 41.8994C151.4 41.8994 149.6 42.5994 146.8 44.0994C146 44.4994 145.7 45.4994 146.1 46.2994C146 46.3994 146 46.4994 146.1 46.4994ZM102.9 129.899C103.8 129.899 104.5 129.099 104.5 128.199C104.4 126.599 104.4 124.999 104.4 123.499C104.4 121.799 104.4 120.099 104.5 118.499C104.5 117.599 103.8 116.799 102.9 116.699C102 116.699 101.2 117.399 101.1 118.299C101 119.999 101 121.799 101 123.499C101 125.099 101 126.699 101.1 128.399C101.2 129.199 101.9 129.899 102.9 129.899ZM106.8 147.699C106.2 144.399 105.7 141.199 105.3 137.999C105.2 137.099 104.4 136.399 103.4 136.499C102.5 136.599 101.8 137.399 101.9 138.399C102.3 141.599 102.8 144.999 103.4 148.299C103.6 149.099 104.3 149.699 105 149.699C105.1 149.699 105.2 149.699 105.3 149.699C106.3 149.499 106.9 148.599 106.8 147.699ZM111.5 166.799C110.5 163.599 109.6 160.399 108.9 157.299C108.7 156.399 107.8 155.899 106.9 156.099C106.2 156.299 105.7 156.899 105.6 157.499C105.3 157.899 105.2 158.399 105.4 158.899C105.9 160.499 106.4 162.199 106.9 163.799C107 164.099 107.2 164.299 107.4 164.499C107.7 165.599 108 166.699 108.4 167.799C108.6 168.499 109.3 168.999 110 168.999C110.2 168.999 110.3 168.999 110.5 168.899C111.3 168.599 111.8 167.699 111.5 166.799ZM433 127.699C432.4 126.999 431.4 126.899 430.6 127.499C429.9 128.099 429.8 129.099 430.4 129.899C432.3 132.199 434.2 134.899 435.9 137.799C436.2 138.299 436.8 138.599 437.3 138.599C437.6 138.599 437.9 138.499 438.1 138.399C438.9 137.899 439.2 136.899 438.7 136.099C437 132.999 435 130.199 433 127.699ZM452.2 173.999C451.4 170.399 450.6 167.199 449.8 164.299C449.6 163.399 448.6 162.899 447.7 163.099C446.8 163.299 446.3 164.299 446.5 165.199C447.3 168.099 448.1 171.299 448.9 174.799C449.1 175.599 449.8 176.099 450.5 176.099C450.6 176.099 450.8 176.099 450.9 176.099C451.9 175.799 452.4 174.899 452.2 173.999ZM446.9 154.599C445.8 151.199 444.6 148.099 443.3 145.199C442.9 144.399 441.9 143.999 441.1 144.299C440.3 144.699 439.9 145.699 440.2 146.499C441.4 149.299 442.6 152.399 443.7 155.699C443.9 156.399 444.6 156.799 445.3 156.799C445.5 156.799 445.7 156.799 445.8 156.699C446.7 156.399 447.2 155.499 446.9 154.599ZM478 269.899L475.4 260.299C475.2 259.399 474.2 258.899 473.3 259.099C472.4 259.299 471.9 260.299 472.1 261.199L474.7 270.799C474.9 271.499 475.6 271.999 476.3 271.999C476.4 271.999 476.6 271.999 476.7 271.899C477.7 271.699 478.2 270.799 478 269.899ZM425.5 120.599C422.6 118.499 419.6 116.899 416.3 115.699C415.4 115.399 414.5 115.899 414.2 116.699C413.9 117.599 414.4 118.499 415.2 118.799C418.1 119.799 420.9 121.299 423.5 123.199C423.8 123.399 424.1 123.499 424.5 123.499C425 123.499 425.5 123.299 425.9 122.799C426.4 122.199 426.2 121.199 425.5 120.599ZM406 113.999C402.7 113.999 399.2 114.499 395.7 115.599C394.8 115.899 394.3 116.799 394.6 117.699C394.8 118.399 395.5 118.899 396.2 118.899C396.4 118.899 396.5 118.899 396.7 118.799C399.9 117.899 403 117.399 406 117.399C406.9 117.399 407.7 116.599 407.7 115.699C407.7 114.799 406.9 113.999 406 113.999ZM342.3 160.199C339.8 162.899 337.6 165.299 335.6 167.399C334.9 168.099 335 169.099 335.6 169.799C335.9 170.099 336.4 170.299 336.8 170.299C337.2 170.299 337.7 170.099 338 169.799C340.1 167.699 342.4 165.299 344.8 162.499C345.4 161.799 345.4 160.799 344.7 160.099C344 159.399 343 159.499 342.3 160.199ZM313.9 187.699C311.4 189.899 308.9 192.099 306.4 194.199C305.7 194.799 305.6 195.899 306.2 196.599C306.5 196.999 307 197.199 307.5 197.199C307.9 197.199 308.3 197.099 308.6 196.799C311.1 194.699 313.6 192.499 316.2 190.299C316.9 189.699 317 188.599 316.3 187.899C315.7 187.199 314.6 187.099 313.9 187.699ZM298.8 200.399C296.2 202.499 293.5 204.499 291 206.399C290.3 206.999 290.1 207.999 290.7 208.699C291 209.099 291.5 209.399 292 209.399C292.3 209.399 292.7 209.299 293 209.099C295.6 207.199 298.3 205.099 300.9 202.999C301.6 202.399 301.7 201.399 301.2 200.599C300.5 199.999 299.5 199.899 298.8 200.399ZM328.5 174.299C326.1 176.599 323.6 178.899 321.3 181.099C320.6 181.699 320.6 182.799 321.2 183.499C321.5 183.899 322 183.999 322.4 183.999C322.8 183.999 323.2 183.899 323.5 183.599C325.9 181.399 328.3 179.099 330.8 176.799C331.5 176.199 331.5 175.099 330.9 174.399C330.2 173.699 329.2 173.599 328.5 174.299ZM386.3 119.499C383.5 120.999 380.6 122.799 377.7 124.799C376.9 125.299 376.8 126.399 377.3 127.099C377.6 127.599 378.1 127.799 378.7 127.799C379 127.799 379.4 127.699 379.7 127.499C382.5 125.499 385.3 123.799 388 122.399C388.8 121.999 389.1 120.999 388.7 120.099C388.1 119.399 387.1 119.099 386.3 119.499ZM282.9 212.199C280.2 214.099 277.4 215.899 274.7 217.699C273.9 218.199 273.7 219.199 274.2 219.999C274.5 220.499 275.1 220.799 275.6 220.799C275.9 220.799 276.2 220.699 276.5 220.499C279.3 218.699 282.1 216.899 284.8 214.999C285.6 214.499 285.8 213.399 285.2 212.699C284.7 211.899 283.7 211.699 282.9 212.199Z" fill="#E06329"/>
<path d="M217.8 17.1998L200.8 25.9998L194.9 54.8998C194.4 57.2998 193.6 59.1998 192.5 60.6998L189.2 62.3998L184 33.8998L161.3 43.0998L159.8 50.2998L158.2 57.8998C157.9 59.1998 157.5 60.1998 156.9 60.9998L155.2 61.8998L153.8 53.9998L152.6 47.2998L151.9 43.3998L149.1 40.5998L144.3 35.7998L138.7 30.0998L140.4 29.1998C141.4 29.1998 142.4 29.3998 143.6 29.8998L150.7 32.9998L157.4 35.8998L177.9 22.5998L157.6 1.9998L160.9 0.299805C162.8 0.299805 164.8 0.699799 167.1 1.6998L194.2 13.3998L211.2 4.4998C215.1 2.4998 222.7 2.49981 224.4 5.59981C224.4 5.59981 224.4 5.6998 224.5 5.6998L224.6 5.7998C226.1 8.8998 221.7 15.1998 217.8 17.1998Z" fill="#E06329"/>
<path d="M343.4 78.3C343.4 86.5 336.8 93.1 328.6 93.1C320.4 93.1 313.8 86.5 313.8 78.3C313.8 70.1 320.4 63.5 328.6 63.5C336.8 63.5 343.4 70.1 343.4 78.3ZM365.9 63.5C357.7 63.5 351.1 70.1 351.1 78.3C351.1 86.5 357.7 93.1 365.9 93.1C374.1 93.1 380.7 86.5 380.7 78.3C380.7 70.1 374.1 63.5 365.9 63.5Z" fill="#E06329"/>
</svg>
